<?xml version="1.0" encoding="utf-8"?>
<!-- Generator: Adobe Illustrator 27.5.0, SVG Export Plug-In . SVG Version: 6.00 Build 0)  -->
<svg version="1.1" xmlns="http://www.w3.org/2000/svg" xmlns:xlink="http://www.w3.org/1999/xlink" x="0px" y="0px"
	 viewBox="0 0 500 500" style="enable-background:new 0 0 500 500;" xml:space="preserve">
<g id="Background_Complete">
	<g>
		<rect y="382.398" style="fill:#EBEBEB;" width="500" height="0.25"/>
		<rect x="416.779" y="398.494" style="fill:#EBEBEB;" width="33.122" height="0.25"/>
		<rect x="322.527" y="401.208" style="fill:#EBEBEB;" width="8.693" height="0.25"/>
		<rect x="396.586" y="389.208" style="fill:#EBEBEB;" width="19.192" height="0.25"/>
		<rect x="52.459" y="390.888" style="fill:#EBEBEB;" width="43.193" height="0.25"/>
		<rect x="104.556" y="390.888" style="fill:#EBEBEB;" width="6.333" height="0.25"/>
		<rect x="131.471" y="395.111" style="fill:#EBEBEB;" width="93.676" height="0.25"/>
		<path style="fill:#EBEBEB;" d="M237.014,337.8H43.915c-3.147,0-5.708-2.561-5.708-5.708V60.66c0-3.147,2.561-5.708,5.708-5.708
			h193.099c3.146,0,5.707,2.561,5.707,5.708v271.432C242.721,335.239,240.16,337.8,237.014,337.8z M43.915,55.203
			c-3.01,0-5.458,2.448-5.458,5.458v271.432c0,3.01,2.448,5.458,5.458,5.458h193.099c3.009,0,5.457-2.448,5.457-5.458V60.66
			c0-3.009-2.448-5.458-5.457-5.458H43.915z"/>
		<path style="fill:#EBEBEB;" d="M453.31,337.8H260.212c-3.147,0-5.707-2.561-5.707-5.708V60.66c0-3.147,2.561-5.708,5.707-5.708
			H453.31c3.148,0,5.708,2.561,5.708,5.708v271.432C459.019,335.239,456.458,337.8,453.31,337.8z M260.212,55.203
			c-3.009,0-5.457,2.448-5.457,5.458v271.432c0,3.01,2.448,5.458,5.457,5.458H453.31c3.01,0,5.458-2.448,5.458-5.458V60.66
			c0-3.009-2.448-5.458-5.458-5.458H260.212z"/>
	</g>
	<g>
		<g>
			<path style="fill:#F5F5F5;" d="M298.417,376.698h-23.17l12.181-99.206c0.516-4.199,4.338-7.604,8.538-7.604h7.963h93.139
				l-14.821,106.81H298.417z"/>
			<path style="fill:#F0F0F0;" d="M371.904,376.698h23.17l12.181-99.206c0.516-4.199-2.471-7.604-6.67-7.604h-7.963
				c-4.199,0-8.022,3.404-8.538,7.604L371.904,376.698z"/>
			<g>
				<path style="fill:#E6E6E6;" d="M363.367,376.58l4.198-47.984c0.188-2.143,1.843-3.866,3.978-4.138l1.726-0.22
					c2.863-0.365,5.084-2.676,5.336-5.551l0.766-8.749c0.314-3.586-2.512-6.67-6.112-6.67h38.723c3.6,0,6.426,3.084,6.112,6.67
					l-0.766,8.749c-0.251,2.875-2.473,5.186-5.335,5.551l-1.727,0.22c-2.134,0.272-3.79,1.995-3.977,4.138l-4.198,47.984
					c-0.306,3.498-3.235,6.183-6.747,6.183H356.62C360.132,382.763,363.061,380.078,363.367,376.58z"/>
			</g>
			<path style="fill:#E6E6E6;" d="M256.804,316.584c-0.659-7.535-6.969-13.317-14.533-13.317h18.737h14.975
				c7.564,0,13.874,5.782,14.533,13.317l3.328,38.037h-33.712L256.804,316.584z"/>
			<path style="fill:#F0F0F0;" d="M227.297,303.267h14.975c7.564,0,13.873,5.782,14.533,13.317l3.328,38.037h80.29l3.328-38.037
				c0.659-7.535,6.969-13.317,14.533-13.317h14.975c3.599,0,6.426,3.084,6.112,6.67l-0.766,8.749
				c-0.251,2.875-2.473,5.186-5.336,5.551l-1.726,0.22c-2.134,0.272-3.79,1.995-3.977,4.138l-4.198,47.984
				c-0.306,3.498-3.235,6.183-6.747,6.183H243.935c-3.512,0-6.441-2.684-6.747-6.183l-4.198-47.984
				c-0.188-2.143-1.843-3.866-3.977-4.138l-1.727-0.22c-2.863-0.365-5.084-2.676-5.336-5.552l-0.765-8.749
				C220.871,306.352,223.697,303.267,227.297,303.267z"/>
		</g>
		<g>
			<path style="fill:#E6E6E6;" d="M303.644,134.363c0,0-1.172-7.726,4.463-12.68c5.635-4.954,5.14-7.901,3.53-8.285
				c-1.61-0.384-3.096,4.57-5.573,5.932c0,0-0.078-7.059,2.438-9.66c2.516-2.601,3.836-9.3,1.442-9.418
				c-2.394-0.118-2.642,3.979-3.137,6.885c-0.495,2.905-3.163,6.992-3.163,6.992s-0.521-6.316-2.147-8.917
				c-1.626-2.601,2.709-8.546,1.037-11.146c-1.672-2.601-4.644,2.353-4.397,7.926c0.248,5.573,3.963,11.518,3.096,17.339
				c0,0-1.639-4.087-3.111-4.459c-1.472-0.372-2.958-3.075-3.949-4.076c-0.991-1.002-2.229,2.466,0,5.686
				c2.229,3.22,7.926,11.835,7.059,18.798L303.644,134.363z"/>
			<path style="fill:#F5F5F5;" d="M307.012,130.848l1.845,11.58c0.57,3.576-2.193,6.814-5.815,6.814h-1.969
				c-3.621,0-6.385-3.238-5.815-6.814l1.845-11.58H307.012z"/>
			
				<rect x="279.102" y="144.969" transform="matrix(-1 -1.224647e-16 1.224647e-16 -1 688.6425 296.6404)" style="fill:#E6E6E6;" width="130.438" height="6.702"/>
			
				<rect x="397.79" y="120.265" transform="matrix(-1 -1.224647e-16 1.224647e-16 -1 801.3268 265.2347)" style="fill:#F0F0F0;" width="5.746" height="24.704"/>
			
				<rect x="370.003" y="120.265" transform="matrix(-1 -1.224647e-16 1.224647e-16 -1 745.7534 265.2347)" style="fill:#F0F0F0;" width="5.747" height="24.704"/>
			
				<rect x="336.319" y="119.957" transform="matrix(-0.9855 -0.1698 0.1698 -0.9855 650.9857 320.3038)" style="fill:#F0F0F0;" width="5.747" height="24.704"/>
			
				<rect x="390.67" y="123.521" transform="matrix(-1 -1.224647e-16 1.224647e-16 -1 787.0858 268.4902)" style="fill:#F0F0F0;" width="5.747" height="21.448"/>
			
				<rect x="377.461" y="123.521" transform="matrix(-1 -1.224647e-16 1.224647e-16 -1 760.6689 268.4902)" style="fill:#F0F0F0;" width="5.747" height="21.448"/>
			
				<rect x="344.122" y="123.521" transform="matrix(-1 -1.224647e-16 1.224647e-16 -1 693.9901 268.4902)" style="fill:#F0F0F0;" width="5.747" height="21.448"/>
			
				<rect x="360.061" y="123.153" transform="matrix(-0.9762 -0.2169 0.2169 -0.9762 688.192 343.2856)" style="fill:#F0F0F0;" width="5.747" height="21.448"/>
			
				<rect x="385.701" y="119.039" transform="matrix(-1 -1.224647e-16 1.224647e-16 -1 774.2746 264.0082)" style="fill:#F0F0F0;" width="2.873" height="25.93"/>
			
				<rect x="351.52" y="119.039" transform="matrix(-1 -1.224647e-16 1.224647e-16 -1 705.9136 264.0082)" style="fill:#F0F0F0;" width="2.873" height="25.93"/>
		</g>
		<g>
			<rect x="279.102" y="195.001" style="fill:#E6E6E6;" width="130.438" height="6.702"/>
			<rect x="285.106" y="170.297" style="fill:#F0F0F0;" width="5.747" height="24.704"/>
			<rect x="312.892" y="170.297" style="fill:#F0F0F0;" width="5.747" height="24.704"/>
			
				<rect x="346.577" y="169.988" transform="matrix(0.9855 -0.1698 0.1698 0.9855 -25.8921 62.0008)" style="fill:#F0F0F0;" width="5.746" height="24.704"/>
			<rect x="292.226" y="173.552" style="fill:#F0F0F0;" width="5.746" height="21.448"/>
			<rect x="305.435" y="173.552" style="fill:#F0F0F0;" width="5.747" height="21.448"/>
			<rect x="338.774" y="173.552" style="fill:#F0F0F0;" width="5.747" height="21.448"/>
			
				<rect x="322.835" y="173.184" transform="matrix(0.9762 -0.2169 0.2169 0.9762 -32.1352 75.0219)" style="fill:#F0F0F0;" width="5.747" height="21.449"/>
			<rect x="300.069" y="169.07" style="fill:#F0F0F0;" width="2.873" height="25.93"/>
			<rect x="334.249" y="169.07" style="fill:#F0F0F0;" width="2.873" height="25.93"/>
			<rect x="369.024" y="175.448" style="fill:#F5F5F5;" width="28" height="19.331"/>
		</g>
		<g>
			<g>
				
					<rect x="93.447" y="112.15" transform="matrix(-1.836970e-16 1 -1 -1.836970e-16 243.0354 25.1373)" style="fill:#EBEBEB;" width="31.005" height="43.873"/>
				
					<rect x="95.468" y="114.213" transform="matrix(-1.836970e-16 1 -1 -1.836970e-16 243.0354 25.1373)" style="fill:#F5F5F5;" width="26.962" height="39.747"/>
			</g>
			<g>
				
					<rect x="108.661" y="151.1" transform="matrix(-1.836970e-16 1 -1 -1.836970e-16 297.1997 48.8732)" style="fill:#EBEBEB;" width="31.005" height="43.873"/>
				
					<rect x="110.682" y="153.163" transform="matrix(-1.836970e-16 1 -1 -1.836970e-16 297.1997 48.8732)" style="fill:#F5F5F5;" width="26.962" height="39.747"/>
			</g>
			<g>
				<rect x="139.208" y="110.086" style="fill:#EBEBEB;" width="27.917" height="39.503"/>
				<rect x="141.028" y="111.943" style="fill:#F5F5F5;" width="24.276" height="35.788"/>
			</g>
			<g>
				<rect x="152.002" y="157.534" style="fill:#EBEBEB;" width="31.005" height="43.873"/>
				<rect x="154.023" y="159.597" style="fill:#F5F5F5;" width="26.962" height="39.747"/>
			</g>
			<g>
				
					<rect x="181.641" y="120.274" transform="matrix(6.123234e-17 -1 1 6.123234e-17 56.3284 331.2295)" style="fill:#EBEBEB;" width="24.277" height="34.352"/>
				
					<rect x="183.223" y="121.89" transform="matrix(6.123234e-17 -1 1 6.123234e-17 56.3284 331.2295)" style="fill:#F5F5F5;" width="21.111" height="31.121"/>
			</g>
		</g>
	</g>
</g>
<g id="Background_Simple" style="display:none;">
	<g style="display:inline;">
		<path style="fill:#407BFF;" d="M104.556,101.625c27.919-59.449,127.059-51.062,165.317-9.255
			c38.258,41.806,50.696,68.599,85.208,52.983c34.512-15.616,78.518-11.44,81.043,38.164s-37.913,108.263-102.09,125.615
			c-64.177,17.352-64.161,78.759-149.1,66.368c-46.31-6.756-47.365-56.86-40.825-98.301S72.177,170.569,104.556,101.625z"/>
		<path style="opacity:0.9;fill:#FFFFFF;" d="M104.556,101.625c27.919-59.449,127.059-51.062,165.317-9.255
			c38.258,41.806,50.696,68.599,85.208,52.983c34.512-15.616,78.518-11.44,81.043,38.164s-37.913,108.263-102.09,125.615
			c-64.177,17.352-64.161,78.759-149.1,66.368c-46.31-6.756-47.365-56.86-40.825-98.301S72.177,170.569,104.556,101.625z"/>
	</g>
</g>
<g id="Shadow_1_">
	<ellipse id="_x3C_Path_x3E__359_" style="fill:#F5F5F5;" cx="250" cy="416.238" rx="193.889" ry="11.323"/>
</g>
<g id="Letter">
	<g>
		<g>
			<g>
				<path style="fill:#407BFF;" d="M418.967,321.97H270.663l0,0c3.426-2.232,5.492-6.045,5.492-10.134V105.707
					c0-4.417,2.575-8.428,6.591-10.267l0,0H431.05l0,0c-4.016,1.839-6.591,5.85-6.591,10.267v206.129
					C424.459,315.925,422.393,319.737,418.967,321.97L418.967,321.97z"/>
				<path style="opacity:0.7;fill:#FFFFFF;enable-background:new    ;" d="M418.967,321.97H270.663l0,0
					c3.426-2.232,5.492-6.045,5.492-10.134V105.707c0-4.417,2.575-8.428,6.591-10.267l0,0H431.05l0,0
					c-4.016,1.839-6.591,5.85-6.591,10.267v206.129C424.459,315.925,422.393,319.737,418.967,321.97L418.967,321.97z"/>
			</g>
			<g>
				<path style="fill:none;stroke:#263238;stroke-linecap:round;stroke-linejoin:round;stroke-miterlimit:10;" d="M414.948,157.115
					c-1.95-0.962-7.784,0.087-9.306,0.262c-1.522,0.175-2.257,0.087-3.653,0.251c-1.396,0.163-1.53,0.011-1.773-0.513
					c-0.244-0.525-2.682-0.175-3.291-0.406c-0.609-0.231-6.095,0.93-11.958,0.919c-5.863-0.012-1.938,0.099-2.777-0.919
					c-0.838-1.018-3.672,0.756-4.281,0.865c-0.61,0.109-2.072,0.153-2.284-0.903c-0.212-1.056-1.738,1.143-3.219,0.881
					c-1.48-0.262,1.724-2.537-0.311-1.487c-2.035,1.05-6.718,1.487-6.718,1.487l1.49,1.067c-5.607,0.087-10.483,0.175-11.458,0.262
					c-0.975,0.087-1.585,0.087-2.682-1.674c-1.097-1.762-0.975,0.45-5.12,1.5c-4.144,1.05-5.12,0.787-7.07-0.175
					c-1.95-0.962-13.91,0.088-15.432,0.262c-1.522,0.175-2.257,0.087-3.652,0.251c-1.396,0.163-1.53,0.012-1.773-0.513
					c-0.244-0.525-2.682-0.175-3.291-0.406c-0.609-0.231-6.095,0.931-11.958,0.919c-5.863-0.012-1.938,0.099-2.777-0.919
					c-0.838-1.018-3.672,0.756-4.281,0.865s-2.072,0.153-2.284-0.903c-0.212-1.056-1.738,1.143-3.218,0.881
					c-1.48-0.262,1.724-2.536-0.311-1.487c-2.035,1.049-6.718,1.487-6.718,1.487"/>
				<path style="fill:none;stroke:#263238;stroke-linecap:round;stroke-linejoin:round;stroke-miterlimit:10;" d="M321.124,116.023
					c-0.609-0.231-6.095,0.931-11.958,0.919c-5.863-0.012-1.938,0.099-2.777-0.919c-0.838-1.018-3.672,0.756-4.281,0.865
					c-0.609,0.109-2.072,0.153-2.284-0.903c-0.212-1.056-1.738,1.143-3.219,0.881c-1.48-0.262,1.724-2.537-0.311-1.487
					c-2.035,1.05-6.718,1.487-6.718,1.487"/>
				<path style="fill:none;stroke:#263238;stroke-linecap:round;stroke-linejoin:round;stroke-miterlimit:10;" d="M414.948,270.421
					c-0.609-0.231-6.095,0.931-11.958,0.919c-5.863-0.012-1.939,0.099-2.777-0.919s-3.672,0.756-4.281,0.865
					c-0.61,0.109-2.072,0.153-2.284-0.903c-0.212-1.056-1.738,1.143-3.219,0.881c-1.48-0.262,1.724-2.536-0.311-1.487
					c-2.035,1.049-6.718,1.487-6.718,1.487"/>
				<path style="fill:none;stroke:#263238;stroke-linecap:round;stroke-linejoin:round;stroke-miterlimit:10;" d="M284.753,169.682
					c0.782-0.33,1.696-0.32,2.47,0.027c0.33-0.236,0.659-0.471,0.989-0.707c0.569,0.689,1.66,0.507,2.451,0.107
					c0.792-0.4,1.583-0.973,2.462-0.882c-0.058,0.381-0.116,0.763-0.174,1.144c1.166-0.152,2.311-0.47,3.392-0.941
					c-0.206,0.29-0.022,0.728,0.282,0.908c0.304,0.18,0.677,0.173,1.028,0.161c3.381-0.113,6.762-0.241,10.142-0.37
					c0.597-0.023,1.194-0.045,1.792-0.068c0.204,0.062,0.332,0.309,0.267,0.515c1.289-0.223,2.501-0.887,3.395-1.859
					c-0.187,0.737,0.426,1.498,1.15,1.689c0.724,0.19,1.491-0.054,2.159-0.397c0.301-0.154,0.605-0.333,0.942-0.356
					c0.337-0.023,0.717,0.171,0.777,0.509c0.627-0.279,1.302,0.212,1.965,0.387c0.412,0.109,0.844,0.092,1.27,0.075
					c4.57-0.186,20.125-0.373,24.695-0.559l3.352,0.652c0,0,4.683-0.437,6.718-1.487c2.035-1.049-1.169,1.224,0.311,1.487
					c1.48,0.262,3.007-1.937,3.219-0.881c0.212,1.056,1.675,1.012,2.284,0.903c0.609-0.109,3.443-1.883,4.281-0.865
					c0.838,1.018-3.086,0.907,2.777,0.919c5.863,0.012,11.348-1.15,11.958-0.919c0.609,0.231,3.047-0.119,3.291,0.406
					c0.244,0.525,0.378,0.677,1.773,0.513c1.396-0.163,2.131-0.076,3.653-0.251s2.497-1.225,4.448-0.262
					c1.95,0.962,2.926,1.225,7.07,0.175c4.145-1.05,4.023-3.261,5.12-1.499c1.097,1.762,7.513,1.762,8.488,1.674"/>
				<path style="fill:none;stroke:#263238;stroke-linecap:round;stroke-linejoin:round;stroke-miterlimit:10;" d="M414.77,148.129
					c-0.425,0.017,0.412,0.034,0-0.075c-0.663-0.175,0.627-0.666,0-0.387c-0.059-0.338-6.2-0.532-6.537-0.509
					c-0.337,0.023-0.64,0.202-0.942,0.356c-0.668,0.342-1.435,0.587-2.159,0.396c-0.724-0.19-1.338-0.952-1.15-1.688
					c-0.894,0.972-2.106,1.635-3.395,1.859c0.065-0.206-0.063-0.454-0.267-0.515c-0.597,0.023-1.194,0.045-1.792,0.068
					c-3.381,0.128-6.761,0.257-10.142,0.37c-0.351,0.012-0.724,0.018-1.028-0.161c-0.304-0.18-0.489-0.618-0.282-0.908
					c-1.081,0.471-2.226,0.788-3.392,0.941c0.058-0.381,0.116-0.763,0.174-1.144c-0.879-0.091-1.671,0.482-2.462,0.881
					c-0.792,0.4-1.883,0.582-2.451-0.107c-0.33,0.236-0.659,0.471-0.989,0.707c-0.775-0.347-1.689-0.357-2.47-0.027l-9.894-0.968
					c0,0-4.571,0.096-5.303-0.313c-0.731-0.409-3.291,1.025-3.291,1.025h-3.291l-4.205,0.159v-0.801c0,0-2.56,0.551-4.937,0.642
					c-2.377,0.091-2.925,0.434-3.035-0.642c-0.11-1.076-14.166,0.289-16.603,0.801c-2.436,0.512-1.952,0.406-2.683-0.801
					c-0.732-1.207-1.646,0.158-2.926,0.66c-1.28,0.502-3.108,0.679-4.206,0c-1.097-0.679-5.851,0.416-7.79,0.431
					c-1.939,0.014-0.072-0.539-0.475-1.473c-0.403-0.934-1.791,1.59-3.101,1.473c-1.31-0.117,1.127-2.507-0.733-2.325
					c-1.86,0.182-4.918,2.036-4.918,2.036"/>
				<path style="fill:none;stroke:#263238;stroke-linecap:round;stroke-linejoin:round;stroke-miterlimit:10;" d="M406.536,179.446
					c-0.722,0.008-1.705-0.555-1.648-2.137c-0.5-0.489-1.035,0.382-1.51,0.979c-0.475,0.598-1.264,0.676-1.392-0.493
					c-0.722,0.687-1.583,0.621-2.282-0.173c-0.479,1.299-1.352,1.375-2.113,1.343c-6.466-0.272-12.932-0.544-19.398-0.817
					c-0.461-0.02-0.932-0.042-1.367-0.384c-0.28-0.22-0.541-0.57-0.832-0.695c-0.796-0.343-1.506,1.013-2.227,1.831
					c-0.721,0.818-1.896,0.65-2.01-1.115c-0.829,1.594-2.076,2.054-3.096,1.144c-0.46,0.384-0.947,0.775-1.431,0.594
					c-0.485-0.182-0.943-1.169-0.848-2.229c-0.445,1.716-1.345,2.671-2.237,2.91c-0.892,0.239-1.792-0.133-2.675-0.504l-7.786,0.31
					c-2.581,0.206-5.203-0.008-7.699-0.627c0.06,0.535-0.756,0.742-1.359,0.753c-1.708,0.03-3.416,0.059-5.124,0.089
					c-0.385,0.007-0.786,0.01-1.132-0.139c-0.346-0.15-0.614-0.504-0.502-0.832c-1.042,0.275-13.151,0.296-14.204,0.059
					c-0.606-0.313-1.263,0.288-1.89,0.568c-0.544,0.242-1.18,0.238-1.788,0.228c-2.95-0.048-5.9-0.096-8.85-0.144
					c-0.791-0.013-1.716-0.09-2.135-0.688c-1.326,0.503-2.528,1.264-3.497,2.215c0.168-0.629,0.156-1.296-0.036-1.92
					c-0.934,0.337-1.797,0.828-2.531,1.441c-0.107-1.193-0.215-2.387-0.322-3.58c-1.762,0.204-2.978,1.874-4.744,2.051
					c-0.995,0.1-2.019-0.301-2.988-0.075c-0.785,0.184-1.727,0.725-2.276,0.192c-0.153-0.148-0.233-0.362-0.43-0.461
					c-0.241-0.121-0.539-0.018-0.794,0.077c-2.216,0.826-4.757,0.939-7.055,0.315"/>
				<path style="fill:none;stroke:#263238;stroke-linecap:round;stroke-linejoin:round;stroke-miterlimit:10;" d="M283.588,201.962
					c0,0,3.749-0.437,5.378-1.487c1.629-1.05-0.936,1.225,0.249,1.487c1.185,0.262,2.407-1.937,2.577-0.881
					c0.17,1.056,1.341,1.012,1.829,0.903c0.488-0.109,2.757-1.883,3.427-0.865c0.671,1.018-2.471,0.907,2.223,0.919
					c4.694,0.012,9.085-1.15,9.573-0.919c0.488,0.231,2.44-0.119,2.635,0.406c0.195,0.525,0.302,0.677,1.42,0.513
					c1.117-0.164,1.706-0.076,2.924-0.251c1.219-0.175,1.999-1.225,3.561-0.262s2.342,1.225,5.66,0.175
					c3.318-1.05,14.205-3.262,15.083-1.5c0.878,1.762,1.366,1.762,2.147,1.674c0.781-0.087,4.684-0.175,9.173-0.262l8.1-0.268
					c2.298,0.624,4.839,0.51,7.055-0.315c0.255-0.095,0.553-0.198,0.794-0.077c0.197,0.099,0.277,0.313,0.43,0.461
					c0.549,0.533,1.491-0.009,2.276-0.192c0.969-0.227,1.992,0.175,2.988,0.075c1.766-0.177,2.981-1.847,4.744-2.051
					c0.107,1.193,0.215,2.387,0.322,3.58c0.735-0.613,1.598-1.105,2.531-1.441c0.191,0.624,0.204,1.291,0.035,1.92
					c0.969-0.951,2.171-1.712,3.497-2.215c0.419,0.598,1.344,0.675,2.135,0.688c2.95,0.048,5.9,0.096,8.85,0.144
					c0.608,0.01,1.244,0.015,1.788-0.228c0.627-0.279,1.283-0.881,1.89-0.567c1.053,0.236,2.178,0.215,3.219-0.06
					c-0.112,0.328,0.156,0.682,0.502,0.832c0.346,0.15,0.747,0.146,1.132,0.139c1.708-0.029,3.416-0.059,5.124-0.089
					c0.603-0.01,1.419-0.218,1.359-0.753c2.496,0.62,2.149,0.833,4.73,0.627"/>
				<path style="fill:none;stroke:#263238;stroke-linecap:round;stroke-linejoin:round;stroke-miterlimit:10;" d="M414.948,190.045
					c-3.318,1.05-1.927,0.787-3.489-0.175c-1.561-0.962-2.342,0.088-3.561,0.262c-1.219,0.175-1.807,0.087-2.924,0.251
					c-1.117,0.163-1.224,0.012-1.42-0.513c-0.195-0.525-2.147-0.175-2.635-0.406c-0.488-0.231-4.879,0.93-9.573,0.919
					c-4.694-0.012-1.552,0.099-2.223-0.919c-0.671-1.018-2.94,0.755-3.427,0.865c-0.488,0.109-1.659,0.153-1.829-0.903
					c-0.17-1.056-1.392,1.143-2.577,0.881c-1.185-0.262,1.38-2.537-0.249-1.487c-1.629,1.049-5.378,1.487-5.378,1.487l-9.287-0.281
					c-2.324,0.025-4.648,0.051-6.972,0.076c-0.722,0.008-1.706-0.555-1.649-2.137c-0.5-0.489-1.035,0.382-1.51,0.979
					c-0.475,0.598-1.264,0.676-1.392-0.493c-0.722,0.686-1.583,0.621-2.282-0.173c-0.479,1.299-1.352,1.375-2.113,1.343
					c-6.466-0.272-23.916-0.545-30.382-0.817c-0.461-0.019-0.932-0.042-1.367-0.384c-0.28-0.22-0.541-0.57-0.832-0.695
					c-0.796-0.343-1.506,1.013-2.227,1.831c-0.721,0.818-1.896,0.65-2.01-1.115c-0.829,1.594-2.076,2.054-3.096,1.144
					c-0.46,0.384-0.947,0.775-1.431,0.594c-0.485-0.181-0.943-1.169-0.848-2.229c-0.445,1.716-1.344,2.671-2.237,2.91
					c-0.892,0.239-1.792-0.133-2.675-0.504"/>
				<path style="fill:none;stroke:#263238;stroke-linecap:round;stroke-linejoin:round;stroke-miterlimit:10;" d="M414.948,117.974
					c-6.466-0.272-12.932-0.545-19.398-0.817c-0.461-0.02-0.932-0.043-1.367-0.384c-0.28-0.22-0.541-0.569-0.833-0.695
					c-0.796-0.343-1.506,1.013-2.227,1.831c-0.721,0.818-1.896,0.65-2.01-1.115c-0.829,1.594-2.076,2.054-3.097,1.144
					c-0.46,0.384-0.947,0.775-1.431,0.594c-0.485-0.181-0.943-1.169-0.848-2.229c-0.445,1.716-1.344,2.671-2.237,2.91
					c-0.892,0.239-1.792-0.133-2.675-0.504"/>
				<path style="fill:none;stroke:#263238;stroke-linecap:round;stroke-linejoin:round;stroke-miterlimit:10;" d="M414.948,279.715
					c-6.466-0.272-12.932-0.544-19.398-0.817c-0.461-0.02-0.932-0.042-1.367-0.384c-0.28-0.22-0.541-0.57-0.833-0.695
					c-0.796-0.343-1.506,1.013-2.227,1.831c-0.721,0.818-1.896,0.65-2.01-1.115c-0.829,1.594-2.076,2.054-3.097,1.144
					c-0.46,0.384-0.947,0.775-1.431,0.594c-0.485-0.181-0.943-1.169-0.848-2.229c-0.445,1.716-1.344,2.671-2.237,2.91
					c-0.892,0.239-1.792-0.133-2.675-0.504"/>
				<path style="fill:none;stroke:#263238;stroke-linecap:round;stroke-linejoin:round;stroke-miterlimit:10;" d="M283.588,222.524
					c2.853,0.624,6.007,0.51,8.759-0.315c0.317-0.095,0.687-0.198,0.986-0.077c0.245,0.099,0.344,0.313,0.534,0.461
					c0.681,0.533,1.851-0.009,2.825-0.192c1.203-0.227,2.473,0.175,3.709,0.075c2.192-0.177,3.702-1.847,5.889-2.051
					c0.133,1.193,0.267,2.387,0.4,3.58c0.912-0.614,1.984-1.105,3.143-1.441c0.238,0.624,0.253,1.291,0.044,1.92
					c1.203-0.951,2.695-1.712,4.341-2.215c0.52,0.598,1.669,0.675,2.651,0.688c3.662,0.048,18.309,0.096,21.972,0.144
					c0.755,0.01,1.544,0.015,2.22-0.228c0.778-0.279,1.593-0.881,2.346-0.567c1.308,0.236,2.704,0.215,3.997-0.06
					c-0.139,0.328,0.193,0.682,0.623,0.832c0.43,0.15,0.928,0.146,1.406,0.14c2.121-0.03,4.241-0.059,6.361-0.089
					c0.749-0.01,1.762-0.218,1.687-0.753c3.099,0.619,6.355,0.833,9.559,0.627l7.838,0.42c1.109-0.33,2.406-0.32,3.505,0.027
					c0.468-0.236,0.935-0.472,1.403-0.707c0.807,0.689,2.355,0.507,3.479,0.107c1.123-0.4,2.246-0.973,3.494-0.881
					c-0.083,0.381-0.165,0.763-0.248,1.144c1.655-0.152,3.279-0.47,4.813-0.94c-0.293,0.29-0.031,0.728,0.401,0.908
					c0.432,0.18,0.96,0.173,1.459,0.161c4.798-0.113,9.595-0.242,14.392-0.37c0.847-0.023,1.695-0.045,2.542-0.068
					c0.289,0.061,0.471,0.309,0.379,0.515c1.829-0.223,3.182-0.887,4.451-1.859c-0.266,0.737-1.027,1.498,0,1.689"/>
				<path style="fill:none;stroke:#263238;stroke-linecap:round;stroke-linejoin:round;stroke-miterlimit:10;" d="M414.72,211.556
					c-0.753-0.314,0.778,0.288,0,0.567c-0.676,0.242,0.755,0.238,0,0.228c-3.662-0.048-8.596-0.096-12.258-0.144
					c-0.982-0.013-2.131-0.09-2.651-0.688c-1.646,0.503-3.139,1.264-4.341,2.215c0.209-0.629,0.194-1.296-0.044-1.92
					c-1.159,0.337-2.23,0.828-3.143,1.441c-0.133-1.193-0.267-2.387-0.4-3.58c-2.188,0.204-3.697,1.874-5.889,2.051
					c-1.236,0.1-2.506-0.301-3.709-0.075c-0.975,0.184-2.144,0.725-2.825,0.192c-0.19-0.148-0.289-0.362-0.534-0.461
					c-0.299-0.121-0.669-0.018-0.986,0.077c-2.752,0.826-5.906,0.939-8.759,0.315l-3.222,0.282
					c-6.485,0.186-12.969,0.373-19.454,0.559c-0.603,0.017-1.217,0.034-1.801-0.074c-0.94-0.175-1.898-0.666-2.788-0.387
					c-0.084-0.338-0.624-0.532-1.102-0.509c-0.478,0.023-0.909,0.202-1.336,0.356c-0.948,0.342-13.021,0.587-14.048,0.396
					c-1.027-0.19-1.898-0.952-1.632-1.689c-1.268,0.972-2.988,1.635-4.817,1.859c0.092-0.206-0.09-0.454-0.379-0.515
					c-0.848,0.023-1.695,0.045-2.542,0.068c-4.797,0.128-9.594,0.257-14.392,0.37c-0.499,0.012-1.027,0.018-1.459-0.161
					c-0.432-0.18-0.694-0.618-0.401-0.908c-1.534,0.471-3.158,0.788-4.813,0.94c0.083-0.381,0.165-0.763,0.248-1.144
					c-1.248-0.091-2.371,0.482-3.494,0.881c-1.124,0.4-2.672,0.582-3.479-0.107c-0.468,0.236-0.935,0.471-1.403,0.707
					c-1.099-0.347-2.396-0.357-3.505-0.027"/>
				<path style="fill:none;stroke:#263238;stroke-linecap:round;stroke-linejoin:round;stroke-miterlimit:10;" d="M283.361,233.806
					c0.918,0.184,1.854,0.369,2.782,0.25c0.928-0.119,1.863-0.592,2.326-1.442c-0.099,0.525,0.378,1.015,0.882,1.105
					c0.504,0.09,1.01-0.104,1.488-0.294c1.062,0.451,2.358,0.223,3.22-0.567c0.119,0.875,1.341,0.958,2.09,0.553
					c0.749-0.406,1.488-1.077,2.315-0.908c0.303,0.062,0.574,0.235,0.866,0.344c0.452,0.169,0.941,0.181,1.421,0.19
					c6.724,0.135,13.448,0.27,20.172,0.405c0.791,0.016,1.699-0.022,2.198-0.666c0.726,0.394,1.622,0.426,2.373,0.086
					c0.133,0.58,11.938,0.541,12.432,0.244c0.494-0.296,1.05-0.728,1.57-0.485c-0.059,0.784,0.964,1.063,1.714,1.059
					c2.417-0.013,4.834-0.025,7.25-0.038l2.578-0.127c1.109-0.33,2.406-0.32,3.505,0.027c0.468-0.236,0.935-0.471,1.403-0.707
					c0.807,0.689,2.355,0.507,3.478,0.107c1.124-0.4,2.247-0.973,3.494-0.881c-0.083,0.381-0.165,0.763-0.248,1.144
					c1.655-0.152,3.279-0.47,4.813-0.94c-0.293,0.29-0.031,0.728,0.401,0.908c0.432,0.18,0.96,0.173,1.459,0.161
					c4.798-0.113,9.595-0.242,14.392-0.37c0.847-0.023,1.695-0.045,2.542-0.068c0.289,0.061,0.471,0.309,0.379,0.515
					c1.829-0.223,3.549-0.887,4.818-1.859c-0.266,0.737,0.605,1.498,1.632,1.689c1.027,0.19,2.116-0.054,3.064-0.397
					c0.428-0.154,0.859-0.333,1.336-0.356c0.478-0.023,1.018,0.171,1.102,0.509c0.89-0.279,1.848,0.212,2.788,0.387
					c0.585,0.109,1.198,0.092,1.801,0.075"/>
			</g>
		</g>
	</g>
</g>
<g id="Trash_bin">
	<g>
		<g>
			<path style="fill:#407BFF;" d="M390.528,390.886c1.01-1.694-0.414-4.244-2.386-4.273c0.864-2.431,0.012-5.37-2.02-6.962
				c-0.256-0.201-0.551-0.389-0.877-0.389c-0.349-0.001-0.658,0.212-0.942,0.415c-1.858,1.335-3.716,2.67-5.575,4.005
				c-0.425,0.306-0.866,0.629-1.106,1.094c-1.139,2.208,2.968,5.037,1.279,6.858c-0.485,0.523-1.266,0.631-1.871,1.009
				c-1.327,0.83-1.487,2.651-2.105,4.088c-0.618,1.437-2.774,2.553-3.599,1.223c0.609-1.379-1.234-2.567-2.731-2.742
				c-1.477-0.173-3.06-0.257-3.887-1.661c-2.124,1.856-6.879-3.323-6.77-5.411c-1.746,0.133-2.935,1.768-3.317,3.403
				c-0.396,1.697-0.151,3.465-0.179,5.204c-0.053,3.381-1.145,6.693-1.085,10.074c0.046,2.631,1.063,5.553,3.472,6.611
				c1.159,0.51,2.469,0.51,3.736,0.502c9.143-0.059,18.286-0.117,27.429-0.176c0.658-0.004,1.345-0.015,1.929-0.32
				c1.238-0.646,1.499-2.271,1.614-3.663c0.491-5.959,0.982-11.918,1.473-17.877C392.183,391.561,391.355,391.224,390.528,390.886z"
				/>
			<path style="opacity:0.3;fill:#FFFFFF;enable-background:new    ;" d="M390.528,390.886c1.01-1.694-0.414-4.244-2.386-4.273
				c0.864-2.431,0.012-5.37-2.02-6.962c-0.256-0.201-0.551-0.389-0.877-0.389c-0.349-0.001-0.658,0.212-0.942,0.415
				c-1.858,1.335-3.716,2.67-5.575,4.005c-0.425,0.306-0.866,0.629-1.106,1.094c-1.139,2.208,2.968,5.037,1.279,6.858
				c-0.485,0.523-1.266,0.631-1.871,1.009c-1.327,0.83-1.487,2.651-2.105,4.088c-0.618,1.437-2.774,2.553-3.599,1.223
				c0.609-1.379-1.234-2.567-2.731-2.742c-1.477-0.173-3.06-0.257-3.887-1.661c-2.124,1.856-6.879-3.323-6.77-5.411
				c-1.746,0.133-2.935,1.768-3.317,3.403c-0.396,1.697-0.151,3.465-0.179,5.204c-0.053,3.381-1.145,6.693-1.085,10.074
				c0.046,2.631,1.063,5.553,3.472,6.611c1.159,0.51,2.469,0.51,3.736,0.502c9.143-0.059,18.286-0.117,27.429-0.176
				c0.658-0.004,1.345-0.015,1.929-0.32c1.238-0.646,1.499-2.271,1.614-3.663c0.491-5.959,0.982-11.918,1.473-17.877
				C392.183,391.561,391.355,391.224,390.528,390.886z"/>
		</g>
		<g>
			<g>
				<path style="fill:#407BFF;" d="M392.129,361.893h-3.08h-8.48h-3.09h-8.47h-3.09h-8.47h-3.09h-4.79l0.35,4.3l0.25,3.07l0.65,7.99
					l0.37,4.59l0.49,6.11l0.21,2.62l0.07,0.78l0.25,3.08l0.34,4.22l0.21,2.62l0.22,2.66l0.25,3.08l0.19,2.33l0.21,2.62l0.09,1.14
					h5.6h4.73h6.83h4.73h6.83h4.73h5.61l0.09-1.14l0.21-2.61l0.19-2.35l0.25-3.08l0.22-2.65l0.21-2.62l0.34-4.23l0.25-3.07
					l0.06-0.78l0.21-2.62l0.5-6.11l0.37-4.58l0.64-8l0.25-3.07l0.35-4.3H392.129z M394.689,364.713L394.689,364.713l-0.82-0.82h0.89
					L394.689,364.713z M394.479,367.323l-0.08,1.04l-3.81,3.81l-4.37-4.37l3.91-3.91h0.92L394.479,367.323z M393.379,380.943
					l-2.79,2.79l-4.37-4.37l4.37-4.36l3.02,3.02L393.379,380.943z M352.879,378.023L352.879,378.023l3.02-3.02l4.37,4.36l-4.37,4.37
					l-2.78-2.79L352.879,378.023z M389.179,373.583l-4.37,4.37l-4.37-4.37l4.37-4.37L389.179,373.583z M382.309,363.893h5l-2.5,2.5
					L382.309,363.893z M383.389,379.363l-4.36,4.37l-4.37-4.37l4.37-4.36L383.389,379.363z M368.879,385.143l4.37-4.36l4.36,4.36
					l-4.36,4.37L368.879,385.143z M371.829,390.923l-4.37,4.37l-4.36-4.36l4.37-4.37L371.829,390.923z M379.029,386.563l4.36,4.37
					l-4.36,4.36l-4.37-4.37L379.029,386.563z M373.249,377.953l-4.37-4.37l4.37-4.37l4.36,4.37L373.249,377.953z M371.829,379.363
					l-4.36,4.37l-4.37-4.37l4.37-4.36L371.829,379.363z M361.679,377.953l-4.36-4.37l4.36-4.37l4.37,4.37L361.679,377.953z
					 M361.679,380.783l4.37,4.36l-4.37,4.37l-4.36-4.37L361.679,380.783z M366.049,396.713l-4.37,4.36l-4.36-4.36l4.36-4.37
					L366.049,396.713z M367.459,398.123l4.37,4.37l-4.36,4.37l-4.37-4.37L367.459,398.123z M368.879,396.713l4.37-4.37l4.36,4.37
					l-4.36,4.36L368.879,396.713z M379.029,398.123l4.36,4.37l-4.36,4.37l-4.37-4.37L379.029,398.123z M384.809,403.903l4.37,4.37
					l-2.83,2.83h-3.08l-2.83-2.83L384.809,403.903z M380.439,396.713l4.37-4.37l4.37,4.37l-4.37,4.36L380.439,396.713z
					 M380.439,385.143l4.37-4.36l4.37,4.36l-4.37,4.37L380.439,385.143z M383.389,367.803l-4.36,4.37l-4.37-4.37l3.91-3.91h0.92
					L383.389,367.803z M373.249,366.393l-2.5-2.5h4.99L373.249,366.393z M371.829,367.803l-4.36,4.37l-4.37-4.37l3.91-3.91h0.92
					L371.829,367.803z M364.179,363.893l-2.5,2.5l-2.49-2.5H364.179z M356.359,363.893l3.91,3.91l-4.37,4.37l-3.8-3.81l-0.08-1.04
					l3.42-3.43H356.359z M352.619,363.893l-0.81,0.81v0l-0.07-0.81H352.619z M352.349,371.443l2.14,2.14l-1.82,1.82L352.349,371.443
					z M353.539,386.093l-0.17-2.07v0l1.12,1.12L353.539,386.093L353.539,386.093z M353.749,388.723l2.15-2.16l4.37,4.37l-4.37,4.36
					l-1.76-1.76L353.749,388.723z M354.399,396.803l-0.01-0.19l0.1,0.1L354.399,396.803L354.399,396.803z M355.159,406.113
					l-0.55-6.7l1.29-1.29l4.37,4.37l-4.37,4.36L355.159,406.113L355.159,406.113z M355.559,411.103l-0.08-1l0.42-0.42l1.42,1.42
					H355.559z M357.319,408.273l4.36-4.37l4.37,4.37l-2.83,2.83h-3.08L357.319,408.273z M366.049,411.103l1.42-1.42l1.42,1.42
					H366.049z M371.709,411.103l-2.83-2.83l4.37-4.37l4.36,4.37l-2.82,2.83H371.709z M377.609,411.103l1.42-1.42l1.42,1.42H377.609z
					 M390.929,411.103h-1.76l1.42-1.42l0.42,0.42L390.929,411.103z M391.339,406.113l-0.75,0.74l-4.37-4.36l4.37-4.37l1.29,1.29
					L391.339,406.113z M392.109,396.603l-0.02,0.2l-0.09-0.09L392.109,396.603L392.109,396.603z M392.359,393.533l-1.77,1.76
					l-4.37-4.36l4.37-4.37l2.16,2.16L392.359,393.533z M392.959,386.103l-0.96-0.96l1.13-1.12L392.959,386.103z M394.149,371.433
					l-0.32,3.98l-1.83-1.83L394.149,371.433L394.149,371.433z"/>
			</g>
			<g style="opacity:0.6;enable-background:new    ;">
				<path style="fill:#FFFFFF;" d="M392.129,361.893h-3.08h-8.48h-3.09h-8.47h-3.09h-8.47h-3.09h-4.79l0.35,4.3l0.25,3.07l0.65,7.99
					l0.37,4.59l0.49,6.11l0.21,2.62l0.07,0.78l0.25,3.08l0.34,4.22l0.21,2.62l0.22,2.66l0.25,3.08l0.19,2.33l0.21,2.62l0.09,1.14
					h5.6h4.73h6.83h4.73h6.83h4.73h5.61l0.09-1.14l0.21-2.61l0.19-2.35l0.25-3.08l0.22-2.65l0.21-2.62l0.34-4.23l0.25-3.07
					l0.06-0.78l0.21-2.62l0.5-6.11l0.37-4.58l0.64-8l0.25-3.07l0.35-4.3H392.129z M394.689,364.713L394.689,364.713l-0.82-0.82h0.89
					L394.689,364.713z M394.479,367.323l-0.08,1.04l-3.81,3.81l-4.37-4.37l3.91-3.91h0.92L394.479,367.323z M393.379,380.943
					l-2.79,2.79l-4.37-4.37l4.37-4.36l3.02,3.02L393.379,380.943z M352.879,378.023L352.879,378.023l3.02-3.02l4.37,4.36l-4.37,4.37
					l-2.78-2.79L352.879,378.023z M389.179,373.583l-4.37,4.37l-4.37-4.37l4.37-4.37L389.179,373.583z M382.309,363.893h5l-2.5,2.5
					L382.309,363.893z M383.389,379.363l-4.36,4.37l-4.37-4.37l4.37-4.36L383.389,379.363z M368.879,385.143l4.37-4.36l4.36,4.36
					l-4.36,4.37L368.879,385.143z M371.829,390.923l-4.37,4.37l-4.36-4.36l4.37-4.37L371.829,390.923z M379.029,386.563l4.36,4.37
					l-4.36,4.36l-4.37-4.37L379.029,386.563z M373.249,377.953l-4.37-4.37l4.37-4.37l4.36,4.37L373.249,377.953z M371.829,379.363
					l-4.36,4.37l-4.37-4.37l4.37-4.36L371.829,379.363z M361.679,377.953l-4.36-4.37l4.36-4.37l4.37,4.37L361.679,377.953z
					 M361.679,380.783l4.37,4.36l-4.37,4.37l-4.36-4.37L361.679,380.783z M366.049,396.713l-4.37,4.36l-4.36-4.36l4.36-4.37
					L366.049,396.713z M367.459,398.123l4.37,4.37l-4.36,4.37l-4.37-4.37L367.459,398.123z M368.879,396.713l4.37-4.37l4.36,4.37
					l-4.36,4.36L368.879,396.713z M379.029,398.123l4.36,4.37l-4.36,4.37l-4.37-4.37L379.029,398.123z M384.809,403.903l4.37,4.37
					l-2.83,2.83h-3.08l-2.83-2.83L384.809,403.903z M380.439,396.713l4.37-4.37l4.37,4.37l-4.37,4.36L380.439,396.713z
					 M380.439,385.143l4.37-4.36l4.37,4.36l-4.37,4.37L380.439,385.143z M383.389,367.803l-4.36,4.37l-4.37-4.37l3.91-3.91h0.92
					L383.389,367.803z M373.249,366.393l-2.5-2.5h4.99L373.249,366.393z M371.829,367.803l-4.36,4.37l-4.37-4.37l3.91-3.91h0.92
					L371.829,367.803z M364.179,363.893l-2.5,2.5l-2.49-2.5H364.179z M356.359,363.893l3.91,3.91l-4.37,4.37l-3.8-3.81l-0.08-1.04
					l3.42-3.43H356.359z M352.619,363.893l-0.81,0.81v0l-0.07-0.81H352.619z M352.349,371.443l2.14,2.14l-1.82,1.82L352.349,371.443
					z M353.539,386.093l-0.17-2.07v0l1.12,1.12L353.539,386.093L353.539,386.093z M353.749,388.723l2.15-2.16l4.37,4.37l-4.37,4.36
					l-1.76-1.76L353.749,388.723z M354.399,396.803l-0.01-0.19l0.1,0.1L354.399,396.803L354.399,396.803z M355.159,406.113
					l-0.55-6.7l1.29-1.29l4.37,4.37l-4.37,4.36L355.159,406.113L355.159,406.113z M355.559,411.103l-0.08-1l0.42-0.42l1.42,1.42
					H355.559z M357.319,408.273l4.36-4.37l4.37,4.37l-2.83,2.83h-3.08L357.319,408.273z M366.049,411.103l1.42-1.42l1.42,1.42
					H366.049z M371.709,411.103l-2.83-2.83l4.37-4.37l4.36,4.37l-2.82,2.83H371.709z M377.609,411.103l1.42-1.42l1.42,1.42H377.609z
					 M390.929,411.103h-1.76l1.42-1.42l0.42,0.42L390.929,411.103z M391.339,406.113l-0.75,0.74l-4.37-4.36l4.37-4.37l1.29,1.29
					L391.339,406.113z M392.109,396.603l-0.02,0.2l-0.09-0.09L392.109,396.603L392.109,396.603z M392.359,393.533l-1.77,1.76
					l-4.37-4.36l4.37-4.37l2.16,2.16L392.359,393.533z M392.959,386.103l-0.96-0.96l1.13-1.12L392.959,386.103z M394.149,371.433
					l-0.32,3.98l-1.83-1.83L394.149,371.433L394.149,371.433z"/>
			</g>
		</g>
		<path style="fill:#407BFF;" d="M348.487,365.677h49.516c0.908,0,1.643-0.736,1.643-1.643v-2.281c0-0.908-0.736-1.643-1.643-1.643
			h-49.516c-0.908,0-1.643,0.736-1.643,1.643v2.281C346.844,364.941,347.58,365.677,348.487,365.677z"/>
		<path style="fill:#407BFF;" d="M394.196,415.677h-41.901c-0.908,0-1.643-0.736-1.643-1.643v-2.281
			c0-0.908,0.736-1.643,1.643-1.643h41.901c0.908,0,1.643,0.736,1.643,1.643v2.281C395.839,414.941,395.103,415.677,394.196,415.677
			z"/>
	</g>
</g>
<g id="Paper_plane">
	<g>
		<g>
			<polygon style="fill:#407BFF;" points="123.013,129.667 116.045,131.145 109.23,139.891 104.108,131.693 95.231,131.344 
				78.764,110.139 			"/>
			<polygon style="opacity:0.4;fill:#FFFFFF;enable-background:new    ;" points="123.013,129.667 116.045,131.145 109.23,139.891 
				104.108,131.693 95.231,131.344 78.764,110.139 			"/>
			<polygon style="opacity:0.2;enable-background:new    ;" points="109.23,139.891 110.158,131.911 104.108,131.693 			"/>
			<polygon style="opacity:0.4;fill:#FFFFFF;enable-background:new    ;" points="116.045,131.145 78.764,110.139 110.158,131.911 
				95.231,131.344 78.764,110.139 123.013,129.667 			"/>
		</g>
		<g>
			<g>
				<path style="fill:#407BFF;" d="M200.707,257.969c-0.259,0-0.479-0.2-0.498-0.463c-0.02-0.275,0.186-0.516,0.461-0.536
					c0.02-0.001,2.023-0.156,4.846-0.891c0.267-0.066,0.54,0.091,0.61,0.358c0.069,0.268-0.091,0.54-0.358,0.61
					c-2.917,0.758-4.939,0.913-5.024,0.92C200.732,257.969,200.719,257.969,200.707,257.969z M210.387,255.476
					c-0.196,0-0.382-0.115-0.461-0.308c-0.106-0.255,0.014-0.548,0.269-0.654c1.56-0.648,3.032-1.403,4.376-2.242
					c0.233-0.148,0.542-0.075,0.689,0.159c0.146,0.234,0.075,0.543-0.16,0.688c-1.39,0.868-2.911,1.648-4.521,2.318
					C210.517,255.463,210.452,255.476,210.387,255.476z M218.802,250.163c-0.133,0-0.266-0.053-0.365-0.158
					c-0.189-0.201-0.179-0.518,0.023-0.706c1.204-1.13,2.27-2.377,3.169-3.705c0.154-0.229,0.465-0.29,0.694-0.134
					c0.229,0.154,0.289,0.466,0.134,0.694c-0.94,1.39-2.055,2.692-3.313,3.873C219.047,250.118,218.924,250.163,218.802,250.163z
					 M224.347,241.958c-0.06,0-0.121-0.011-0.18-0.033c-0.257-0.1-0.386-0.39-0.286-0.646c0.301-0.779,0.562-1.589,0.782-2.422
					c-0.841,0.148-1.673,0.279-2.492,0.395c-0.271,0.037-0.527-0.152-0.565-0.426c-0.039-0.273,0.152-0.526,0.425-0.564
					c0.946-0.134,1.911-0.289,2.887-0.466c0.088-0.405,0.167-0.816,0.236-1.23c0.045-0.273,0.304-0.457,0.575-0.411
					c0.272,0.045,0.456,0.303,0.411,0.575c-0.048,0.291-0.102,0.579-0.159,0.866c0.314-0.061,0.628-0.124,0.942-0.189
					c0.268-0.064,0.535,0.117,0.591,0.388c0.056,0.271-0.118,0.535-0.388,0.591c-0.462,0.096-0.922,0.188-1.382,0.274
					c-0.251,1.029-0.563,2.026-0.932,2.979C224.736,241.837,224.547,241.958,224.347,241.958z M213.371,239.895
					c-0.422,0-0.839-0.005-1.251-0.015c-0.276-0.007-0.495-0.236-0.488-0.512c0.007-0.276,0.195-0.508,0.512-0.488
					c1.591,0.038,3.271,0.001,4.953-0.108c0.277-0.019,0.513,0.191,0.531,0.467c0.018,0.275-0.191,0.514-0.467,0.531
					C215.886,239.852,214.61,239.895,213.371,239.895z M207.15,239.51c-0.021,0-0.043-0.001-0.065-0.004
					c-1.733-0.226-3.405-0.55-4.968-0.965c-0.267-0.071-0.426-0.345-0.355-0.611c0.071-0.268,0.346-0.428,0.612-0.355
					c1.521,0.404,3.15,0.721,4.84,0.939c0.274,0.036,0.467,0.286,0.431,0.561C207.613,239.326,207.398,239.51,207.15,239.51z
					 M231.886,237.23c-0.22,0-0.422-0.146-0.482-0.37c-0.072-0.267,0.086-0.541,0.353-0.612c1.555-0.419,3.158-0.896,4.767-1.418
					c0.262-0.085,0.544,0.058,0.63,0.321c0.086,0.263-0.059,0.545-0.321,0.63c-1.625,0.527-3.245,1.01-4.816,1.432
					C231.973,237.225,231.929,237.23,231.886,237.23z M197.538,236.892c-0.069,0-0.14-0.015-0.208-0.045
					c-1.636-0.748-3.111-1.629-4.381-2.616c-0.218-0.169-0.258-0.483-0.088-0.701c0.17-0.217,0.483-0.258,0.702-0.088
					c1.21,0.939,2.618,1.779,4.184,2.495c0.251,0.115,0.361,0.412,0.247,0.663C197.909,236.783,197.728,236.892,197.538,236.892z
					 M241.395,234.148c-0.202,0-0.392-0.123-0.468-0.323c-0.098-0.259,0.033-0.547,0.292-0.645c1.512-0.57,3.067-1.195,4.62-1.857
					c0.253-0.108,0.547,0.011,0.656,0.264c0.108,0.255-0.01,0.548-0.264,0.656c-1.565,0.667-3.133,1.297-4.659,1.872
					C241.513,234.137,241.454,234.148,241.395,234.148z M225.971,232.165c-0.268,0-0.49-0.212-0.499-0.482
					c-0.058-1.626-0.283-3.255-0.667-4.844c-0.065-0.269,0.1-0.539,0.368-0.604c0.268-0.064,0.539,0.1,0.604,0.368
					c0.401,1.653,0.634,3.351,0.695,5.044c0.01,0.275-0.206,0.508-0.482,0.517C225.983,232.165,225.977,232.165,225.971,232.165z
					 M189.849,230.713c-0.163,0-0.323-0.08-0.419-0.227c-0.996-1.525-1.611-3.155-1.828-4.843c-0.035-0.274,0.159-0.525,0.433-0.56
					c0.273-0.033,0.524,0.159,0.559,0.433c0.197,1.537,0.76,3.025,1.673,4.423c0.151,0.231,0.086,0.541-0.145,0.692
					C190.038,230.686,189.943,230.713,189.849,230.713z M250.595,230.235c-0.188,0-0.367-0.105-0.453-0.286
					c-0.118-0.25-0.011-0.548,0.238-0.666l0.803-0.382c1.253-0.602,2.456-1.249,3.571-1.924c0.237-0.143,0.544-0.067,0.687,0.169
					c0.143,0.236,0.067,0.544-0.169,0.687c-1.143,0.691-2.374,1.354-3.657,1.971l-0.807,0.384
					C250.739,230.22,250.666,230.235,250.595,230.235z M259.093,225.023c-0.144,0-0.287-0.062-0.385-0.181
					c-0.176-0.212-0.147-0.528,0.066-0.704c1.306-1.083,2.474-2.245,3.47-3.454c0.175-0.213,0.49-0.244,0.704-0.068
					c0.213,0.175,0.244,0.491,0.068,0.704c-1.037,1.258-2.249,2.465-3.604,3.587C259.318,224.985,259.205,225.023,259.093,225.023z
					 M223.636,222.513c-0.188,0-0.368-0.106-0.453-0.288c-0.695-1.485-1.539-2.897-2.507-4.198c-0.165-0.222-0.119-0.535,0.102-0.7
					c0.222-0.167,0.535-0.119,0.7,0.102c1.009,1.355,1.888,2.826,2.611,4.372c0.117,0.25,0.009,0.548-0.241,0.665
					C223.779,222.498,223.707,222.513,223.636,222.513z M188.653,221.16c-0.055,0-0.112-0.009-0.167-0.029
					c-0.26-0.092-0.396-0.378-0.304-0.638c0.543-1.534,1.413-3.032,2.587-4.452c0.175-0.212,0.49-0.244,0.704-0.066
					c0.212,0.176,0.243,0.491,0.066,0.704c-1.099,1.329-1.911,2.724-2.415,4.148C189.052,221.032,188.859,221.16,188.653,221.16z
					 M265.349,217.323c-0.074,0-0.149-0.017-0.221-0.052c-0.247-0.122-0.35-0.421-0.227-0.669c0.722-1.465,1.253-3.01,1.578-4.593
					c0.055-0.27,0.318-0.446,0.59-0.389c0.271,0.056,0.445,0.32,0.389,0.59c-0.342,1.666-0.9,3.293-1.661,4.834
					C265.711,217.22,265.534,217.323,265.349,217.323z M217.693,214.558c-0.117,0-0.234-0.041-0.329-0.124
					c-1.252-1.093-2.602-2.021-4.013-2.757c-0.245-0.128-0.339-0.43-0.212-0.675c0.128-0.245,0.431-0.339,0.675-0.212
					c1.481,0.774,2.897,1.746,4.209,2.891c0.207,0.182,0.229,0.498,0.047,0.706C217.971,214.5,217.833,214.558,217.693,214.558z
					 M194.778,213.432c-0.151,0-0.301-0.068-0.399-0.198c-0.167-0.22-0.123-0.534,0.097-0.701c1.411-1.067,2.901-1.927,4.428-2.557
					c0.254-0.104,0.548,0.017,0.653,0.272c0.105,0.255-0.017,0.547-0.272,0.653c-1.448,0.597-2.863,1.414-4.206,2.43
					C194.989,213.399,194.883,213.432,194.778,213.432z M208.898,210.035c-0.034,0-0.069-0.003-0.104-0.011
					c-1.597-0.339-3.22-0.438-4.82-0.29c-0.276,0.025-0.519-0.177-0.544-0.452c-0.025-0.275,0.177-0.518,0.452-0.544
					c1.699-0.158,3.424-0.052,5.119,0.308c0.271,0.058,0.443,0.323,0.386,0.593C209.337,209.874,209.129,210.035,208.898,210.035z
					 M267.352,207.639c-0.266,0-0.487-0.21-0.499-0.478c-0.069-1.572-0.318-3.194-0.74-4.822c-0.069-0.267,0.091-0.54,0.358-0.609
					c0.267-0.071,0.54,0.091,0.609,0.358c0.44,1.695,0.699,3.388,0.771,5.029c0.012,0.276-0.202,0.509-0.478,0.521
					C267.367,207.639,267.359,207.639,267.352,207.639z M264.927,198.012c-0.191,0-0.373-0.11-0.456-0.295
					c-0.646-1.436-1.43-2.897-2.33-4.34c-0.146-0.234-0.075-0.543,0.16-0.689c0.235-0.146,0.543-0.074,0.689,0.16
					c0.923,1.481,1.729,2.982,2.394,4.459c0.113,0.252,0.001,0.548-0.251,0.661C265.065,197.998,264.996,198.012,264.927,198.012z
					 M259.688,189.53c-0.148,0-0.295-0.065-0.394-0.191c-0.984-1.251-2.074-2.511-3.24-3.746c-0.189-0.201-0.18-0.518,0.021-0.707
					c0.201-0.188,0.517-0.18,0.707,0.02c1.186,1.257,2.295,2.54,3.298,3.814c0.17,0.217,0.133,0.531-0.084,0.702
					C259.905,189.495,259.795,189.53,259.688,189.53z M252.845,182.255c-0.12,0-0.24-0.043-0.336-0.13
					c-1.194-1.084-2.468-2.165-3.788-3.211c-0.216-0.171-0.253-0.486-0.081-0.702c0.171-0.216,0.486-0.254,0.702-0.081
					c1.337,1.06,2.628,2.155,3.838,3.254c0.204,0.186,0.22,0.502,0.034,0.706C253.117,182.2,252.981,182.255,252.845,182.255z
					 M245.025,176.033c-0.099,0-0.2-0.029-0.287-0.091c-1.331-0.935-2.725-1.859-4.144-2.748c-0.234-0.146-0.305-0.455-0.159-0.689
					c0.146-0.234,0.455-0.304,0.689-0.159c1.435,0.898,2.844,1.832,4.189,2.777c0.226,0.159,0.28,0.471,0.122,0.697
					C245.337,175.958,245.182,176.033,245.025,176.033z M236.557,170.721c-0.083,0-0.167-0.021-0.244-0.064
					c-1.418-0.796-2.896-1.583-4.394-2.34c-0.247-0.124-0.345-0.425-0.221-0.672c0.125-0.245,0.426-0.345,0.672-0.221
					c1.511,0.763,3.002,1.558,4.432,2.36c0.241,0.135,0.327,0.44,0.191,0.681C236.902,170.629,236.732,170.721,236.557,170.721z
					 M227.635,166.21c-0.069,0-0.139-0.014-0.207-0.045c-1.492-0.678-3.03-1.341-4.573-1.972c-0.256-0.105-0.378-0.396-0.274-0.652
					c0.105-0.256,0.398-0.378,0.652-0.274c1.555,0.636,3.106,1.304,4.609,1.988c0.251,0.114,0.362,0.411,0.248,0.662
					C228.007,166.102,227.826,166.21,227.635,166.21z M218.382,162.424c-0.057,0-0.116-0.01-0.172-0.031
					c-1.534-0.563-3.118-1.113-4.707-1.635c-0.262-0.086-0.405-0.369-0.319-0.631c0.086-0.262,0.367-0.405,0.631-0.319
					c1.6,0.525,3.194,1.08,4.739,1.647c0.259,0.095,0.392,0.382,0.297,0.642C218.777,162.298,218.586,162.424,218.382,162.424z
					 M208.884,159.301c-0.046,0-0.093-0.006-0.14-0.02c-1.58-0.462-3.197-0.907-4.805-1.323c-0.268-0.069-0.428-0.342-0.359-0.609
					c0.069-0.268,0.342-0.432,0.609-0.359c1.619,0.418,3.245,0.866,4.835,1.331c0.265,0.078,0.417,0.355,0.34,0.62
					C209.3,159.159,209.101,159.301,208.884,159.301z M199.205,156.796c-0.037,0-0.074-0.004-0.111-0.012
					c-1.61-0.365-3.251-0.711-4.878-1.03c-0.271-0.053-0.448-0.316-0.395-0.587c0.053-0.271,0.313-0.449,0.587-0.395
					c1.637,0.321,3.287,0.669,4.906,1.036c0.27,0.061,0.439,0.329,0.378,0.598C199.64,156.639,199.434,156.796,199.205,156.796z
					 M189.394,154.872c-0.027,0-0.055-0.002-0.083-0.007c-1.558-0.259-3.134-0.501-4.729-0.724l-0.201-0.028
					c-0.273-0.038-0.464-0.291-0.426-0.564c0.038-0.273,0.288-0.465,0.564-0.426l0.2,0.028c1.605,0.224,3.189,0.467,4.755,0.728
					c0.273,0.045,0.456,0.303,0.411,0.575C189.846,154.699,189.634,154.872,189.394,154.872z M179.505,153.391
					c-0.025,0-0.051-0.002-0.077-0.006c-1.682-0.259-3.33-0.523-4.943-0.794c-0.272-0.046-0.456-0.304-0.41-0.576
					c0.045-0.272,0.301-0.461,0.576-0.41c1.608,0.27,3.251,0.535,4.929,0.792c0.273,0.042,0.46,0.297,0.418,0.57
					C179.961,153.214,179.748,153.391,179.505,153.391z M169.644,151.735c-0.03,0-0.06-0.002-0.09-0.008
					c-1.68-0.307-3.319-0.619-4.919-0.936c-0.271-0.053-0.447-0.316-0.393-0.587c0.053-0.271,0.317-0.449,0.587-0.393
					c1.595,0.316,3.23,0.627,4.905,0.933c0.271,0.049,0.452,0.31,0.402,0.582C170.091,151.566,169.881,151.735,169.644,151.735z
					 M159.836,149.792c-0.035,0-0.07-0.003-0.105-0.011c-1.678-0.359-3.308-0.723-4.888-1.089c-0.269-0.063-0.437-0.331-0.374-0.6
					c0.063-0.269,0.331-0.436,0.6-0.374c1.576,0.365,3.199,0.728,4.871,1.086c0.27,0.058,0.442,0.324,0.384,0.594
					C160.274,149.631,160.067,149.792,159.836,149.792z M150.096,147.533c-0.04,0-0.081-0.005-0.122-0.015
					c-1.677-0.42-3.293-0.841-4.848-1.262c-0.266-0.072-0.424-0.347-0.352-0.613c0.072-0.267,0.345-0.426,0.613-0.352
					c1.548,0.419,3.158,0.838,4.829,1.257c0.268,0.067,0.431,0.338,0.363,0.606C150.523,147.381,150.319,147.533,150.096,147.533z
					 M140.444,144.919c-0.046,0-0.093-0.006-0.14-0.02c-1.683-0.492-3.28-0.979-4.794-1.458c-0.263-0.083-0.409-0.364-0.326-0.627
					c0.084-0.263,0.362-0.411,0.627-0.326c1.507,0.477,3.098,0.962,4.773,1.452c0.265,0.078,0.417,0.355,0.34,0.62
					C140.86,144.778,140.661,144.919,140.444,144.919z M130.912,141.897c-0.054,0-0.109-0.009-0.163-0.027
					c-1.608-0.553-3.195-1.124-4.718-1.695c-0.258-0.097-0.389-0.386-0.293-0.644c0.098-0.259,0.385-0.388,0.644-0.293
					c1.514,0.569,3.093,1.136,4.692,1.687c0.261,0.09,0.4,0.374,0.31,0.635C131.313,141.767,131.119,141.897,130.912,141.897z
					 M121.556,138.37c-0.064,0-0.129-0.012-0.192-0.038c-1.658-0.689-3.205-1.373-4.596-2.031c-0.25-0.118-0.356-0.417-0.238-0.666
					c0.118-0.249,0.414-0.356,0.666-0.238c1.377,0.651,2.908,1.328,4.552,2.011c0.255,0.107,0.376,0.399,0.27,0.654
					C121.938,138.254,121.752,138.37,121.556,138.37z"/>
			</g>
			<g style="opacity:0.7;enable-background:new    ;">
				<path style="fill:#FFFFFF;" d="M200.707,257.969c-0.259,0-0.479-0.2-0.498-0.463c-0.02-0.275,0.186-0.516,0.461-0.536
					c0.02-0.001,2.023-0.156,4.846-0.891c0.267-0.066,0.54,0.091,0.61,0.358c0.069,0.268-0.091,0.54-0.358,0.61
					c-2.917,0.758-4.939,0.913-5.024,0.92C200.732,257.969,200.719,257.969,200.707,257.969z M210.387,255.476
					c-0.196,0-0.382-0.115-0.461-0.308c-0.106-0.255,0.014-0.548,0.269-0.654c1.56-0.648,3.032-1.403,4.376-2.242
					c0.233-0.148,0.542-0.075,0.689,0.159c0.146,0.234,0.075,0.543-0.16,0.688c-1.39,0.868-2.911,1.648-4.521,2.318
					C210.517,255.463,210.452,255.476,210.387,255.476z M218.802,250.163c-0.133,0-0.266-0.053-0.365-0.158
					c-0.189-0.201-0.179-0.518,0.023-0.706c1.204-1.13,2.27-2.377,3.169-3.705c0.154-0.229,0.465-0.29,0.694-0.134
					c0.229,0.154,0.289,0.466,0.134,0.694c-0.94,1.39-2.055,2.692-3.313,3.873C219.047,250.118,218.924,250.163,218.802,250.163z
					 M224.347,241.958c-0.06,0-0.121-0.011-0.18-0.033c-0.257-0.1-0.386-0.39-0.286-0.646c0.301-0.779,0.562-1.589,0.782-2.422
					c-0.841,0.148-1.673,0.279-2.492,0.395c-0.271,0.037-0.527-0.152-0.565-0.426c-0.039-0.273,0.152-0.526,0.425-0.564
					c0.946-0.134,1.911-0.289,2.887-0.466c0.088-0.405,0.167-0.816,0.236-1.23c0.045-0.273,0.304-0.457,0.575-0.411
					c0.272,0.045,0.456,0.303,0.411,0.575c-0.048,0.291-0.102,0.579-0.159,0.866c0.314-0.061,0.628-0.124,0.942-0.189
					c0.268-0.064,0.535,0.117,0.591,0.388c0.056,0.271-0.118,0.535-0.388,0.591c-0.462,0.096-0.922,0.188-1.382,0.274
					c-0.251,1.029-0.563,2.026-0.932,2.979C224.736,241.837,224.547,241.958,224.347,241.958z M213.371,239.895
					c-0.422,0-0.839-0.005-1.251-0.015c-0.276-0.007-0.495-0.236-0.488-0.512c0.007-0.276,0.195-0.508,0.512-0.488
					c1.591,0.038,3.271,0.001,4.953-0.108c0.277-0.019,0.513,0.191,0.531,0.467c0.018,0.275-0.191,0.514-0.467,0.531
					C215.886,239.852,214.61,239.895,213.371,239.895z M207.15,239.51c-0.021,0-0.043-0.001-0.065-0.004
					c-1.733-0.226-3.405-0.55-4.968-0.965c-0.267-0.071-0.426-0.345-0.355-0.611c0.071-0.268,0.346-0.428,0.612-0.355
					c1.521,0.404,3.15,0.721,4.84,0.939c0.274,0.036,0.467,0.286,0.431,0.561C207.613,239.326,207.398,239.51,207.15,239.51z
					 M231.886,237.23c-0.22,0-0.422-0.146-0.482-0.37c-0.072-0.267,0.086-0.541,0.353-0.612c1.555-0.419,3.158-0.896,4.767-1.418
					c0.262-0.085,0.544,0.058,0.63,0.321c0.086,0.263-0.059,0.545-0.321,0.63c-1.625,0.527-3.245,1.01-4.816,1.432
					C231.973,237.225,231.929,237.23,231.886,237.23z M197.538,236.892c-0.069,0-0.14-0.015-0.208-0.045
					c-1.636-0.748-3.111-1.629-4.381-2.616c-0.218-0.169-0.258-0.483-0.088-0.701c0.17-0.217,0.483-0.258,0.702-0.088
					c1.21,0.939,2.618,1.779,4.184,2.495c0.251,0.115,0.361,0.412,0.247,0.663C197.909,236.783,197.728,236.892,197.538,236.892z
					 M241.395,234.148c-0.202,0-0.392-0.123-0.468-0.323c-0.098-0.259,0.033-0.547,0.292-0.645c1.512-0.57,3.067-1.195,4.62-1.857
					c0.253-0.108,0.547,0.011,0.656,0.264c0.108,0.255-0.01,0.548-0.264,0.656c-1.565,0.667-3.133,1.297-4.659,1.872
					C241.513,234.137,241.454,234.148,241.395,234.148z M225.971,232.165c-0.268,0-0.49-0.212-0.499-0.482
					c-0.058-1.626-0.283-3.255-0.667-4.844c-0.065-0.269,0.1-0.539,0.368-0.604c0.268-0.064,0.539,0.1,0.604,0.368
					c0.401,1.653,0.634,3.351,0.695,5.044c0.01,0.275-0.206,0.508-0.482,0.517C225.983,232.165,225.977,232.165,225.971,232.165z
					 M189.849,230.713c-0.163,0-0.323-0.08-0.419-0.227c-0.996-1.525-1.611-3.155-1.828-4.843c-0.035-0.274,0.159-0.525,0.433-0.56
					c0.273-0.033,0.524,0.159,0.559,0.433c0.197,1.537,0.76,3.025,1.673,4.423c0.151,0.231,0.086,0.541-0.145,0.692
					C190.038,230.686,189.943,230.713,189.849,230.713z M250.595,230.235c-0.188,0-0.367-0.105-0.453-0.286
					c-0.118-0.25-0.011-0.548,0.238-0.666l0.803-0.382c1.253-0.602,2.456-1.249,3.571-1.924c0.237-0.143,0.544-0.067,0.687,0.169
					c0.143,0.236,0.067,0.544-0.169,0.687c-1.143,0.691-2.374,1.354-3.657,1.971l-0.807,0.384
					C250.739,230.22,250.666,230.235,250.595,230.235z M259.093,225.023c-0.144,0-0.287-0.062-0.385-0.181
					c-0.176-0.212-0.147-0.528,0.066-0.704c1.306-1.083,2.474-2.245,3.47-3.454c0.175-0.213,0.49-0.244,0.704-0.068
					c0.213,0.175,0.244,0.491,0.068,0.704c-1.037,1.258-2.249,2.465-3.604,3.587C259.318,224.985,259.205,225.023,259.093,225.023z
					 M223.636,222.513c-0.188,0-0.368-0.106-0.453-0.288c-0.695-1.485-1.539-2.897-2.507-4.198c-0.165-0.222-0.119-0.535,0.102-0.7
					c0.222-0.167,0.535-0.119,0.7,0.102c1.009,1.355,1.888,2.826,2.611,4.372c0.117,0.25,0.009,0.548-0.241,0.665
					C223.779,222.498,223.707,222.513,223.636,222.513z M188.653,221.16c-0.055,0-0.112-0.009-0.167-0.029
					c-0.26-0.092-0.396-0.378-0.304-0.638c0.543-1.534,1.413-3.032,2.587-4.452c0.175-0.212,0.49-0.244,0.704-0.066
					c0.212,0.176,0.243,0.491,0.066,0.704c-1.099,1.329-1.911,2.724-2.415,4.148C189.052,221.032,188.859,221.16,188.653,221.16z
					 M265.349,217.323c-0.074,0-0.149-0.017-0.221-0.052c-0.247-0.122-0.35-0.421-0.227-0.669c0.722-1.465,1.253-3.01,1.578-4.593
					c0.055-0.27,0.318-0.446,0.59-0.389c0.271,0.056,0.445,0.32,0.389,0.59c-0.342,1.666-0.9,3.293-1.661,4.834
					C265.711,217.22,265.534,217.323,265.349,217.323z M217.693,214.558c-0.117,0-0.234-0.041-0.329-0.124
					c-1.252-1.093-2.602-2.021-4.013-2.757c-0.245-0.128-0.339-0.43-0.212-0.675c0.128-0.245,0.431-0.339,0.675-0.212
					c1.481,0.774,2.897,1.746,4.209,2.891c0.207,0.182,0.229,0.498,0.047,0.706C217.971,214.5,217.833,214.558,217.693,214.558z
					 M194.778,213.432c-0.151,0-0.301-0.068-0.399-0.198c-0.167-0.22-0.123-0.534,0.097-0.701c1.411-1.067,2.901-1.927,4.428-2.557
					c0.254-0.104,0.548,0.017,0.653,0.272c0.105,0.255-0.017,0.547-0.272,0.653c-1.448,0.597-2.863,1.414-4.206,2.43
					C194.989,213.399,194.883,213.432,194.778,213.432z M208.898,210.035c-0.034,0-0.069-0.003-0.104-0.011
					c-1.597-0.339-3.22-0.438-4.82-0.29c-0.276,0.025-0.519-0.177-0.544-0.452c-0.025-0.275,0.177-0.518,0.452-0.544
					c1.699-0.158,3.424-0.052,5.119,0.308c0.271,0.058,0.443,0.323,0.386,0.593C209.337,209.874,209.129,210.035,208.898,210.035z
					 M267.352,207.639c-0.266,0-0.487-0.21-0.499-0.478c-0.069-1.572-0.318-3.194-0.74-4.822c-0.069-0.267,0.091-0.54,0.358-0.609
					c0.267-0.071,0.54,0.091,0.609,0.358c0.44,1.695,0.699,3.388,0.771,5.029c0.012,0.276-0.202,0.509-0.478,0.521
					C267.367,207.639,267.359,207.639,267.352,207.639z M264.927,198.012c-0.191,0-0.373-0.11-0.456-0.295
					c-0.646-1.436-1.43-2.897-2.33-4.34c-0.146-0.234-0.075-0.543,0.16-0.689c0.235-0.146,0.543-0.074,0.689,0.16
					c0.923,1.481,1.729,2.982,2.394,4.459c0.113,0.252,0.001,0.548-0.251,0.661C265.065,197.998,264.996,198.012,264.927,198.012z
					 M259.688,189.53c-0.148,0-0.295-0.065-0.394-0.191c-0.984-1.251-2.074-2.511-3.24-3.746c-0.189-0.201-0.18-0.518,0.021-0.707
					c0.201-0.188,0.517-0.18,0.707,0.02c1.186,1.257,2.295,2.54,3.298,3.814c0.17,0.217,0.133,0.531-0.084,0.702
					C259.905,189.495,259.795,189.53,259.688,189.53z M252.845,182.255c-0.12,0-0.24-0.043-0.336-0.13
					c-1.194-1.084-2.468-2.165-3.788-3.211c-0.216-0.171-0.253-0.486-0.081-0.702c0.171-0.216,0.486-0.254,0.702-0.081
					c1.337,1.06,2.628,2.155,3.838,3.254c0.204,0.186,0.22,0.502,0.034,0.706C253.117,182.2,252.981,182.255,252.845,182.255z
					 M245.025,176.033c-0.099,0-0.2-0.029-0.287-0.091c-1.331-0.935-2.725-1.859-4.144-2.748c-0.234-0.146-0.305-0.455-0.159-0.689
					c0.146-0.234,0.455-0.304,0.689-0.159c1.435,0.898,2.844,1.832,4.189,2.777c0.226,0.159,0.28,0.471,0.122,0.697
					C245.337,175.958,245.182,176.033,245.025,176.033z M236.557,170.721c-0.083,0-0.167-0.021-0.244-0.064
					c-1.418-0.796-2.896-1.583-4.394-2.34c-0.247-0.124-0.345-0.425-0.221-0.672c0.125-0.245,0.426-0.345,0.672-0.221
					c1.511,0.763,3.002,1.558,4.432,2.36c0.241,0.135,0.327,0.44,0.191,0.681C236.902,170.629,236.732,170.721,236.557,170.721z
					 M227.635,166.21c-0.069,0-0.139-0.014-0.207-0.045c-1.492-0.678-3.03-1.341-4.573-1.972c-0.256-0.105-0.378-0.396-0.274-0.652
					c0.105-0.256,0.398-0.378,0.652-0.274c1.555,0.636,3.106,1.304,4.609,1.988c0.251,0.114,0.362,0.411,0.248,0.662
					C228.007,166.102,227.826,166.21,227.635,166.21z M218.382,162.424c-0.057,0-0.116-0.01-0.172-0.031
					c-1.534-0.563-3.118-1.113-4.707-1.635c-0.262-0.086-0.405-0.369-0.319-0.631c0.086-0.262,0.367-0.405,0.631-0.319
					c1.6,0.525,3.194,1.08,4.739,1.647c0.259,0.095,0.392,0.382,0.297,0.642C218.777,162.298,218.586,162.424,218.382,162.424z
					 M208.884,159.301c-0.046,0-0.093-0.006-0.14-0.02c-1.58-0.462-3.197-0.907-4.805-1.323c-0.268-0.069-0.428-0.342-0.359-0.609
					c0.069-0.268,0.342-0.432,0.609-0.359c1.619,0.418,3.245,0.866,4.835,1.331c0.265,0.078,0.417,0.355,0.34,0.62
					C209.3,159.159,209.101,159.301,208.884,159.301z M199.205,156.796c-0.037,0-0.074-0.004-0.111-0.012
					c-1.61-0.365-3.251-0.711-4.878-1.03c-0.271-0.053-0.448-0.316-0.395-0.587c0.053-0.271,0.313-0.449,0.587-0.395
					c1.637,0.321,3.287,0.669,4.906,1.036c0.27,0.061,0.439,0.329,0.378,0.598C199.64,156.639,199.434,156.796,199.205,156.796z
					 M189.394,154.872c-0.027,0-0.055-0.002-0.083-0.007c-1.558-0.259-3.134-0.501-4.729-0.724l-0.201-0.028
					c-0.273-0.038-0.464-0.291-0.426-0.564c0.038-0.273,0.288-0.465,0.564-0.426l0.2,0.028c1.605,0.224,3.189,0.467,4.755,0.728
					c0.273,0.045,0.456,0.303,0.411,0.575C189.846,154.699,189.634,154.872,189.394,154.872z M179.505,153.391
					c-0.025,0-0.051-0.002-0.077-0.006c-1.682-0.259-3.33-0.523-4.943-0.794c-0.272-0.046-0.456-0.304-0.41-0.576
					c0.045-0.272,0.301-0.461,0.576-0.41c1.608,0.27,3.251,0.535,4.929,0.792c0.273,0.042,0.46,0.297,0.418,0.57
					C179.961,153.214,179.748,153.391,179.505,153.391z M169.644,151.735c-0.03,0-0.06-0.002-0.09-0.008
					c-1.68-0.307-3.319-0.619-4.919-0.936c-0.271-0.053-0.447-0.316-0.393-0.587c0.053-0.271,0.317-0.449,0.587-0.393
					c1.595,0.316,3.23,0.627,4.905,0.933c0.271,0.049,0.452,0.31,0.402,0.582C170.091,151.566,169.881,151.735,169.644,151.735z
					 M159.836,149.792c-0.035,0-0.07-0.003-0.105-0.011c-1.678-0.359-3.308-0.723-4.888-1.089c-0.269-0.063-0.437-0.331-0.374-0.6
					c0.063-0.269,0.331-0.436,0.6-0.374c1.576,0.365,3.199,0.728,4.871,1.086c0.27,0.058,0.442,0.324,0.384,0.594
					C160.274,149.631,160.067,149.792,159.836,149.792z M150.096,147.533c-0.04,0-0.081-0.005-0.122-0.015
					c-1.677-0.42-3.293-0.841-4.848-1.262c-0.266-0.072-0.424-0.347-0.352-0.613c0.072-0.267,0.345-0.426,0.613-0.352
					c1.548,0.419,3.158,0.838,4.829,1.257c0.268,0.067,0.431,0.338,0.363,0.606C150.523,147.381,150.319,147.533,150.096,147.533z
					 M140.444,144.919c-0.046,0-0.093-0.006-0.14-0.02c-1.683-0.492-3.28-0.979-4.794-1.458c-0.263-0.083-0.409-0.364-0.326-0.627
					c0.084-0.263,0.362-0.411,0.627-0.326c1.507,0.477,3.098,0.962,4.773,1.452c0.265,0.078,0.417,0.355,0.34,0.62
					C140.86,144.778,140.661,144.919,140.444,144.919z M130.912,141.897c-0.054,0-0.109-0.009-0.163-0.027
					c-1.608-0.553-3.195-1.124-4.718-1.695c-0.258-0.097-0.389-0.386-0.293-0.644c0.098-0.259,0.385-0.388,0.644-0.293
					c1.514,0.569,3.093,1.136,4.692,1.687c0.261,0.09,0.4,0.374,0.31,0.635C131.313,141.767,131.119,141.897,130.912,141.897z
					 M121.556,138.37c-0.064,0-0.129-0.012-0.192-0.038c-1.658-0.689-3.205-1.373-4.596-2.031c-0.25-0.118-0.356-0.417-0.238-0.666
					c0.118-0.249,0.414-0.356,0.666-0.238c1.377,0.651,2.908,1.328,4.552,2.011c0.255,0.107,0.376,0.399,0.27,0.654
					C121.938,138.254,121.752,138.37,121.556,138.37z"/>
			</g>
		</g>
	</g>
</g>
<g id="Character">
	<g>
		<g>
			<polygon style="fill:#263238;" points="107.79,328.677 107.43,344.247 105.79,415.677 100.38,415.677 98.75,344.247 
				98.39,328.677 			"/>
			<polygon style="opacity:0.4;fill:#FFFFFF;enable-background:new    ;" points="107.79,328.677 107.43,344.247 105.79,415.677 
				100.38,415.677 98.75,344.247 98.39,328.677 			"/>
			<polygon style="opacity:0.2;enable-background:new    ;" points="107.79,328.677 107.43,344.677 98.75,344.677 98.39,328.677 			
				"/>
			<g>
				<g>
					<polygon style="fill:#263238;" points="137.169,415.427 132.171,329.777 124.001,329.777 130.998,415.427 					"/>
					<polygon style="opacity:0.5;fill:#FFFFFF;enable-background:new    ;" points="130.984,415.427 137.16,415.427 
						132.624,337.377 132.175,329.677 124.004,329.677 124.635,337.377 					"/>
					<polygon style="opacity:0.2;enable-background:new    ;" points="124.004,329.677 124.634,337.677 132.624,337.677 
						132.174,329.677 					"/>
				</g>
				<g>
					<polygon style="fill:#263238;" points="75.177,415.427 82.175,329.777 74.005,329.777 69.007,415.427 					"/>
					<polygon style="opacity:0.5;fill:#FFFFFF;enable-background:new    ;" points="75.192,415.427 81.541,337.377 82.171,329.677 
						74.001,329.677 73.551,337.377 69.016,415.427 					"/>
					<polygon style="opacity:0.2;enable-background:new    ;" points="82.172,329.677 81.541,337.677 73.551,337.677 
						74.001,329.677 					"/>
				</g>
			</g>
			<path style="fill:#263238;" d="M131.548,321.01H74.628c-2.761,0-5,2.239-5,5v6.689h66.921v-6.689
				C136.548,323.249,134.31,321.01,131.548,321.01z"/>
			<g>
				<path style="fill:#263238;" d="M137.743,326.855H68.433c-1.111,0-2.011,0.901-2.011,2.011v1.822c0,1.111,0.9,2.011,2.011,2.011
					h69.311c1.111,0,2.011-0.9,2.011-2.011v-1.822C139.755,327.755,138.854,326.855,137.743,326.855z"/>
				<path style="opacity:0.6;fill:#FFFFFF;enable-background:new    ;" d="M137.743,326.855H68.433
					c-1.111,0-2.011,0.901-2.011,2.011v1.822c0,1.111,0.9,2.011,2.011,2.011h69.311c1.111,0,2.011-0.9,2.011-2.011v-1.822
					C139.755,327.755,138.854,326.855,137.743,326.855z"/>
			</g>
		</g>
		<g id="_x3C_Group_x3E__89_">
			<path style="fill:#EBB376;" d="M173.903,258.108l6.714-1.483c0,0,3.264-3.264,3.956-3.758c0.692-0.494,10.879,1.879,13.747,2.473
				c2.868,0.593-0.593,6.268-3.363,8.142c-2.769,1.873-12.638,0.977-12.857,0l-4.696-0.086L173.903,258.108z"/>
			<path style="fill:#263238;" d="M141.319,244.628c1.6,2.25,2.92,4.87,4.1,7.49c2.67,5.88,4.61,11.74,7.35,13.24
				c3.96,2.16,25.35-1.88,25.35-1.88l-1.43-6.52c0,0-13.17,1.92-15.44-0.04c-4.79-4.12-3.17-17.21-8.48-21.72l-5.18,4.27
				L141.319,244.628z"/>
			<path style="opacity:0.2;enable-background:new    ;" d="M141.319,244.628c1.6,2.25,2.92,4.87,4.1,7.49
				c2.83-3.46,2.47-9.93,2.17-12.65L141.319,244.628z"/>
			<polygon style="fill:#EBB376;" points="127.448,408.456 135.414,407.363 136.518,388.427 128.563,389.529 			"/>
			<polygon style="opacity:0.2;enable-background:new    ;" points="128.563,389.529 136.519,388.437 135.886,399.261 
				127.941,399.958 			"/>
			<path style="fill:#407BFF;" d="M127.768,297.137l-2.063-21.407l-42.725-3.5c0,0-8.374,29.395-2.916,42.148
				c5.389,12.594,41.618,5.969,51.89,7.154c-6.14,25.11-5.54,74.18-5.54,74.18l14.67,1.12c0,0,11.288-52.876,13.57-78
				C156.194,301.878,142.147,302.3,127.768,297.137z"/>
			<polygon style="fill:#407BFF;" points="124.694,396.402 142.324,397.562 143.834,390.012 124.464,389.112 			"/>
			<polygon style="fill:#EBB376;" points="145.825,401.385 153.844,401.975 158.868,383.684 150.858,383.105 			"/>
			<g>
				<path style="fill:#407BFF;" d="M154.958,402.332c0.01,0.02,0.006,0.046,0.022,0.062c0.02,0.011,0.045,0.012,0.068,0.009
					c0.622,0.35,1.279,0.633,1.962,0.842c0.498,0.203,1.055,0.212,1.56,0.025c0.336-0.191,0.533-0.559,0.503-0.945
					c0.023-0.243-0.078-0.48-0.271-0.629c-0.455-0.339-1.408-0.239-2.248-0.061c0.612-0.499,1.149-1.126,1.184-1.627
					c0.019-0.329-0.17-0.63-0.485-0.728c-0.272-0.113-0.544-0.1-0.805,0.035c-0.974,0.535-1.352,2.779-1.381,2.899
					c0,0.001,0.142,0.001,0.142,0.002c0,0.001,0,0.001,0,0.002c0,0.001-0.144,0.007-0.144,0.008
					c-0.001,0.008-0.135,0.014-0.135,0.023C154.931,402.279,154.94,402.308,154.958,402.332z M155.556,401.886
					c-0.067,0.02-0.124,0.038-0.18,0.055c0.188-0.738,0.592-1.95,1.175-2.262c0.129-0.078,0.285-0.099,0.43-0.057l0.087,0.031
					c0.249,0.102,0.281,0.247,0.268,0.356C157.268,400.551,156.346,401.452,155.556,401.886z M155.586,402.299
					c1.058-0.32,2.526-0.609,2.977-0.27c0.096,0.073,0.146,0.19,0.132,0.309c0.011,0.242-0.106,0.472-0.308,0.606
					C157.922,403.198,156.895,402.958,155.586,402.299z"/>
			</g>
			<polygon style="opacity:0.2;enable-background:new    ;" points="150.858,383.105 158.867,383.694 155.993,394.148 
				148.077,393.176 			"/>
			<path style="fill:#407BFF;" d="M161.584,392.858l-14.12-4.15c0,0,8.43-47.58,16.98-64.08c-0.64-0.21-1.49-0.48-2.54-0.79
				c-1.89-0.57-4.4-1.28-7.35-2.1c-20.52-5.69-62.11-16.36-62.11-16.36l19-23.73c0,0,77.265,13.367,77.25,37.48
				C188.688,328.747,161.584,392.858,161.584,392.858z"/>
			<polygon style="fill:#407BFF;" points="145.642,389.021 162.644,393.828 165.693,386.758 146.936,381.843 			"/>
			<path style="opacity:0.2;enable-background:new    ;" d="M161.904,323.838c-1.89-0.57-4.4-1.28-7.35-2.1
				c0.59-4.84,0.6-10.39-1.73-13.22c-4.63-5.64-16.54-8.95-23.32-10.15c-5.67-1-24.72-2.99-24.72-2.99s24.72-2.37,49.99,5
				C167.264,304.028,164.834,316.238,161.904,323.838z"/>
			<polygon style="opacity:0.2;fill:#FFFFFF;" points="124.694,396.402 142.324,397.562 143.834,390.012 124.464,389.112 			"/>
			<polygon style="opacity:0.2;fill:#FFFFFF;" points="145.642,389.021 162.644,393.828 165.693,386.758 146.936,381.843 			"/>
			<path style="fill:#263238;" d="M154.631,401.161l-8.685-2.424c-0.299-0.098-0.621,0.065-0.719,0.364
				c-0.001,0.003-0.002,0.006-0.003,0.009l-2.343,6.76c-0.209,0.749,0.223,1.527,0.97,1.745c3.044,0.796,4.538,1.025,8.368,2.061
				c2.348,0.648,6.926,2.152,10.274,2.533c3.349,0.381,3.635-2.939,2.252-3.395c-3.279-1.098-7.202-4.515-8.906-6.836
				C155.538,401.579,155.113,401.292,154.631,401.161z"/>
			<g>
				<path style="fill:#407BFF;" d="M136.208,407.384c0,0.008,0.166,0.013,0.168,0.021c0.009,0.03,0.179,0.056,0.202,0.076
					c0.014,0.018,0.015,0.043,0.034,0.056c0.023,0.007,0.046,0.002,0.068-0.006c0.681,0.213,1.382,0.353,2.093,0.414
					c0.53,0.095,1.074-0.012,1.529-0.301c0.289-0.257,0.401-0.658,0.292-1.029c-0.028-0.242-0.184-0.453-0.403-0.558
					c-0.516-0.236-1.442,0.06-2.226,0.41c0.495-0.615,0.862-1.339,0.791-1.836c-0.05-0.326-0.354-0.577-0.682-0.608
					c-0.289-0.053-0.665,0.023-0.893,0.21c-0.837,0.723-0.972,2.994-0.972,3.134c0,0.002,0,0.004,0,0.006c0,0.001,0,0.002,0,0.002
					C136.208,407.377,136.208,407.384,136.208,407.384z M137.07,406.919c-0.061,0.033-0.113,0.063-0.165,0.092
					c0.031-0.761,0.174-2.031,0.678-2.457c0.11-0.103,0.259-0.156,0.409-0.145l0.091,0.012c0.265,0.048,0.327,0.183,0.336,0.293
					C138.466,405.257,137.752,406.33,137.07,406.919z M137.186,407.318c0.968-0.534,2.343-1.122,2.855-0.884
					c0.109,0.051,0.182,0.155,0.194,0.275c0.061,0.234-0.005,0.484-0.175,0.657C139.658,407.71,138.602,407.689,137.186,407.318z"/>
			</g>
			<path style="fill:#263238;" d="M136.014,406.403l-9-0.561c-0.313-0.034-0.594,0.193-0.628,0.506c0,0.003-0.001,0.006-0.001,0.009
				l-0.883,7.1c-0.049,0.776,0.536,1.447,1.312,1.504c3.144,0.145,4.651,0.057,8.614,0.273c2.431,0.145,7.222,0.662,10.576,0.337
				c3.355-0.325,2.943-3.632,1.495-3.79c-3.435-0.391-7.985-2.915-10.135-4.831C136.988,406.624,136.513,406.431,136.014,406.403z"
				/>
			<path style="fill:#263238;" d="M126.739,279.158c0,0-0.42-2.46,0.58-6.93c1.06-4.74,3.73-11.74,10.2-20.47
				c3.7-4.99,8.65-10.54,15.25-16.56c0,0-22.18-18.41-38.04-15.72c-15.56,2.64-34.07,57.94-34.07,57.94L126.739,279.158z"/>
			<path style="fill:#EBB376;" d="M146.335,228.294c-2.17-0.96-4.75,0-4.75,0s-0.94,5.02-6.65,5.34c-0.69,0.04-1.45,0.01-2.28-0.1
				c-7.74-1.06-6.89-12.57-6.89-12.57c3.21,0.24,5.93-0.7,8.06-1.94c0,0,0,0,0-0.01c3.39-1.97,5.28-4.72,5.28-4.72L146.335,228.294z
				"/>
			<path style="opacity:0.2;enable-background:new    ;" d="M146.335,228.294c-2.17-0.96-4.75,0-4.75,0s-0.94,5.02-6.65,5.34
				c-1.99-4.93-1.73-10.58-1.11-14.61c0,0,0,0,0-0.01c3.39-1.97,5.28-4.72,5.28-4.72L146.335,228.294z"/>
			<g>
				<path style="fill:#263238;" d="M152.802,206.528c-4.046,0.997-3.95,5.261,1.213,13.788c4.396-2.755,7.659-10.053,5.993-12.809
					C158.342,204.751,156.324,205.672,152.802,206.528z"/>
				<path style="fill:#EBB376;" d="M136.665,207.405c-2.575,8.034-4.482,12.6-2.097,18.17c3.598,8.375,14.681,8.559,19.607,1.455
					c4.414-6.385,7.891-18.451,1.429-24.558c-4.596-4.388-11.878-4.219-16.266,0.377C138.105,204.14,137.19,205.7,136.665,207.405z"
					/>
				<path style="fill:#263238;" d="M147.541,214.12c-0.248,0.638-0.109,1.289,0.309,1.449c0.417,0.16,0.949-0.221,1.197-0.859
					c0.248-0.638,0.117-1.284-0.295-1.452C148.34,213.09,147.83,213.508,147.541,214.12z"/>
				<path style="fill:#263238;" d="M154.795,216.958c-0.248,0.639-0.109,1.289,0.308,1.449c0.418,0.16,0.957-0.216,1.211-0.862
					c0.254-0.646,0.109-1.289-0.309-1.449C155.589,215.936,155.044,216.319,154.795,216.958z"/>
				<path style="fill:#D58745;" d="M152.31,216.336c0.001,2.249,0.312,4.487,0.924,6.651c-1.564,0.605-3.276-0.622-3.276-0.622
					L152.31,216.336z"/>
				<path style="fill:#263238;" d="M142.499,201.67c3.178,2.686,1.187,6.464-7.228,11.793c-2.712-4.426-2.384-12.423,0.342-14.132
					C138.338,197.623,139.721,199.33,142.499,201.67z"/>
				<path style="fill:#EBB376;" d="M130.483,212.224c-0.194,2.114,0.457,4.22,1.812,5.854c1.815,2.144,4.291,0.899,5.107-1.633
					c0.733-2.284,0.667-6.155-1.785-7.372C133.166,207.857,130.734,209.633,130.483,212.224z"/>
				<g>
					
						<path style="fill:none;stroke:#263238;stroke-width:0.5263;stroke-linecap:round;stroke-linejoin:round;stroke-miterlimit:10;" d="
						M151.136,216.937c-0.757,2.044-2.753,3.19-4.46,2.558c-1.706-0.632-2.476-2.801-1.719-4.845c0.757-2.044,2.753-3.19,4.46-2.558
						C151.123,212.723,151.893,214.892,151.136,216.937z"/>
					
						<path style="fill:none;stroke:#263238;stroke-width:0.5263;stroke-linecap:round;stroke-linejoin:round;stroke-miterlimit:10;" d="
						M159.637,219.932c-0.757,2.044-2.753,3.19-4.46,2.558c-1.706-0.632-2.476-2.801-1.719-4.845c0.757-2.044,2.753-3.19,4.46-2.558
						C159.624,215.719,160.394,217.888,159.637,219.932z"/>
					
						<path style="fill:none;stroke:#263238;stroke-width:0.5263;stroke-linecap:round;stroke-linejoin:round;stroke-miterlimit:10;" d="
						M151.136,216.937c0,0,1.589-0.624,2.322,0.709"/>
					
						<line style="fill:none;stroke:#263238;stroke-width:0.5263;stroke-linecap:round;stroke-linejoin:round;stroke-miterlimit:10;" x1="144.958" y1="214.65" x2="137.676" y2="211.224"/>
				</g>
				<path style="fill:#263238;" d="M144.903,210.485c0.141,0.074,0.311,0.068,0.447-0.017c0.896-0.616,2.03-0.773,3.059-0.424
					c0.215,0.095,0.465-0.002,0.561-0.217c0.095-0.215-0.002-0.465-0.217-0.561c-0.001,0-0.001-0.001-0.002-0.001
					c-1.29-0.475-2.731-0.294-3.864,0.485c-0.2,0.123-0.263,0.384-0.141,0.584c0.002,0.003,0.004,0.006,0.005,0.009
					C144.795,210.398,144.846,210.446,144.903,210.485z"/>
				<path style="fill:#263238;" d="M158.444,215.157c0.065,0.057,0.145,0.093,0.231,0.102c0.234-0.022,0.406-0.229,0.384-0.462
					c0-0.003,0-0.006-0.001-0.009c-0.117-1.374-0.896-2.606-2.087-3.301c-0.209-0.106-0.465-0.023-0.571,0.187l0,0.001
					c-0.1,0.211-0.017,0.462,0.188,0.572l0,0c0.924,0.576,1.522,1.555,1.612,2.641C158.237,215.008,158.327,215.107,158.444,215.157
					z"/>
				
					<path style="fill:none;stroke:#263238;stroke-width:0.5263;stroke-linecap:round;stroke-linejoin:round;stroke-miterlimit:10;" d="
					M143.915,220.818c0,0-0.409,3.07,2.558,4.373"/>
				<path style="fill:#263238;" d="M136.618,200.053c0,0-1.334-2.819,2.967-5.291c4.301-2.473,16.865-2.967,22.154,5.291
					c4.846,7.566-1.011,10.408-8.504,9.717c0,0,3.122-0.174,3.757-1.089c0,0-10.48,0.186-15.674-7.485L136.618,200.053z"/>
			</g>
			<polygon style="fill:#263238;" points="186.548,259.793 186.674,262.893 188.094,260.134 191.442,244.966 189.896,244.625 			"/>
			<g>
				<polygon style="fill:#407BFF;" points="209.894,264.179 196.641,261.608 175.477,262.893 171.718,264.179 158.759,262.893 
					146.44,265.354 193.081,265.354 				"/>
				<polygon style="opacity:0.7;fill:#FFFFFF;enable-background:new    ;" points="209.894,264.179 196.641,261.608 
					175.477,262.893 171.718,264.179 158.759,262.893 146.44,265.354 193.081,265.354 				"/>
				<polygon style="opacity:0.2;enable-background:new    ;" points="175.477,262.893 185.367,265.465 169.443,265.366 				"/>
				<polygon style="opacity:0.2;enable-background:new    ;" points="158.759,262.893 166.477,265.354 146.44,265.354 				"/>
			</g>
			<path style="opacity:0.2;enable-background:new    ;" d="M114.229,266.988c4.3,2.67,9.01,4.27,13.09,5.24
				c1.06-4.74,3.73-11.74,10.2-20.47c-2.74-0.02-7.1-0.05-8.68,0.02c-2.38,0.1-9.33-16.58-9.33-16.58l-10.81-5.31
				C108.699,229.888,103.679,260.428,114.229,266.988z"/>
			<path style="fill:#EBB376;" d="M145.185,259.427l7.112,1.319c0,0,5.042-1.319,6.763-1.319s9.501,2.471,9.615,3.466
				c0.114,0.995-3.146,5.555-4.069,6.253c-0.923,0.698-7.675-1.001-7.675-1.001s-4.628,0.468-5.795-1.161l-7.24-0.993
				L145.185,259.427z"/>
			<path style="fill:#263238;" d="M113.682,219.745c7.436-2.098,9.61,27.125,12.775,32.133c3.165,5.008,22.549,6.809,22.549,6.809
				l-1.588,8.297c0,0-18.578,0-27.515-2.805c-6.139-1.927-11.604-29.148-11.209-34.291
				C109.09,224.746,109.439,220.942,113.682,219.745z"/>
		</g>
		<g>
			<g>
				<g>
					<polygon style="fill:#263238;" points="178.981,415.427 168.678,271.983 176.806,271.983 185.235,415.427 					"/>
					<polygon style="opacity:0.4;fill:#FFFFFF;enable-background:new    ;" points="178.981,415.427 169.215,279.595 
						168.675,272.23 176.805,272.23 177.245,279.595 185.238,415.427 					"/>
					<polygon style="opacity:0.2;enable-background:new    ;" points="177.245,279.23 169.215,279.23 168.675,272.23 
						176.805,272.23 					"/>
				</g>
				<g>
					<polygon style="fill:#263238;" points="224.58,415.427 223.644,271.983 231.771,271.983 230.835,415.427 					"/>
					<polygon style="opacity:0.5;fill:#FFFFFF;enable-background:new    ;" points="230.84,415.427 224.581,415.427 
						223.805,296.955 223.645,272.23 231.775,272.23 231.615,296.955 					"/>
					<polygon style="opacity:0.2;enable-background:new    ;" points="231.775,272.23 231.615,297.23 223.805,297.23 
						223.645,272.23 					"/>
				</g>
				<g>
					<polygon style="fill:#263238;" points="288.981,415.427 278.678,271.983 286.806,271.983 295.235,415.427 					"/>
					<polygon style="opacity:0.5;fill:#FFFFFF;enable-background:new    ;" points="288.981,415.427 279.215,279.595 
						278.675,272.23 286.805,272.23 287.245,279.595 295.238,415.427 					"/>
					<polygon style="opacity:0.2;enable-background:new    ;" points="287.246,279.23 279.215,279.23 278.675,272.23 
						286.806,272.23 					"/>
				</g>
				<g>
					<polygon style="fill:#263238;" points="110.18,415.427 118.609,271.983 126.737,271.983 116.434,415.427 					"/>
					<polygon style="opacity:0.5;fill:#FFFFFF;enable-background:new    ;" points="116.43,415.427 110.181,415.427 
						118.165,279.595 118.605,272.23 126.735,272.23 126.195,279.595 					"/>
					<polygon style="opacity:0.2;enable-background:new    ;" points="118.605,272.23 126.735,272.23 126.195,279.23 
						118.165,279.23 					"/>
				</g>
				<g>
					<path style="fill:#263238;" d="M291.086,275.821H114.329c-1.194,0-2.162-0.968-2.162-2.162v-5.514h181.081v5.514
						C293.248,274.853,292.28,275.821,291.086,275.821z"/>
				</g>
				<g style="opacity:0.6;enable-background:new    ;">
					<path style="fill:#FFFFFF;" d="M291.086,275.821H114.329c-1.194,0-2.162-0.968-2.162-2.162v-5.514h181.081v5.514
						C293.248,274.853,292.28,275.821,291.086,275.821z"/>
				</g>
				<rect x="112.167" y="268.146" style="opacity:0.2;enable-background:new    ;" width="181.081" height="3.838"/>
				<g>
					<path style="fill:#263238;" d="M297.045,269.146H108.37c-1.194,0-2.162-0.968-2.162-2.162l0,0c0-1.194,0.968-2.162,2.162-2.162
						h188.676c1.194,0,2.162,0.968,2.162,2.162l0,0C299.207,268.178,298.24,269.146,297.045,269.146z"/>
				</g>
				<g style="opacity:0.6;enable-background:new    ;">
					<path style="fill:#FFFFFF;" d="M297.045,269.146H108.37c-1.194,0-2.162-0.968-2.162-2.162l0,0c0-1.194,0.968-2.162,2.162-2.162
						h188.676c1.194,0,2.162,0.968,2.162,2.162l0,0C299.207,268.178,298.24,269.146,297.045,269.146z"/>
				</g>
			</g>
		</g>
		<g>
			<g>
				<path style="fill:#407BFF;" d="M271.19,265.014h-18.364c-1.194,0-2.163-0.922-2.163-0.922h22.689
					C273.352,264.093,272.384,265.014,271.19,265.014z"/>
			</g>
			<path style="fill:#407BFF;" d="M268.59,251.433c-0.358,0.091-0.707,0.194-1.017,0.297h-0.426
				c-1.017-0.411-2.101-0.445-3.128-0.091c0.068,0.023,0.145,0.057,0.223,0.091h-0.455c0.077-0.034,0.155-0.069,0.232-0.091
				c-0.978-0.331-2.005-0.331-2.973,0.034c-1.056-0.388-2.179-0.376-3.215,0.057c-0.029,0.011-0.068,0.023-0.097,0.034v0.011
				c-0.049-0.011-0.087-0.034-0.135-0.045c-0.31-0.103-0.649-0.205-1.007-0.297c-1.24-0.308-1.346,0.297-1.346,0.297l0.049,0.045
				c0.116,0.114,0.407,0.41,0.639,0.73l0.048,0.057c0.184,0.274,0.32,0.547,0.252,0.718h-1.239c-1.017,0-1.85,0.73-1.85,1.619v2.577
				c0,0.433,0.194,0.844,0.542,1.152l2.353,2.064c0.213,0.194,0.474,0.319,0.765,0.399c0.959,1.813,3.041,3.078,5.471,3.078h0.881
				c3.332,0,6.043-2.383,6.043-5.301v-4.777c0-0.524,0.116-1.049,0.339-1.516l0.397-0.844
				C269.936,251.73,269.83,251.125,268.59,251.433z M254.403,258.479c-0.629-0.559-0.658-0.525-0.658-1.3v-2.349
				c0-0.559,0.523-1.026,1.162-1.026h0.514c0.455,0,0.813,0.319,0.823,0.707c0.009,1.607,0.048,5.381,0.058,5.438L254.403,258.479z"
				/>
			<path style="fill:#407BFF;" d="M262.247,242.315c-0.657-1.446-1.327-2.934-1.491-4.563c-0.164-1.628,1.469-4.33,1.469-4.33
				c-1.375,1.046-2.344,2.802-2.599,4.706c-0.254,1.904,0.211,3.925,1.246,5.418c0.676,0.975,1.569,1.863,2.446,2.534
				C263.553,244.792,262.775,243.479,262.247,242.315z"/>
			<g style="opacity:0.2;enable-background:new    ;">
				<path style="opacity:0.4;fill:#FFFFFF;" d="M271.19,265.014h-18.364c-1.194,0-2.163-0.922-2.163-0.922h22.689
					C273.352,264.093,272.384,265.014,271.19,265.014z"/>
			</g>
			<path style="opacity:0.3;fill:#FFFFFF;enable-background:new    ;" d="M268.59,251.433c-0.358,0.091-0.707,0.194-1.017,0.297
				h-0.426c-1.017-0.411-2.101-0.445-3.128-0.091c0.068,0.023,0.145,0.057,0.223,0.091h-0.455c0.077-0.034,0.155-0.069,0.232-0.091
				c-0.978-0.331-2.005-0.331-2.973,0.034c-1.056-0.388-2.179-0.376-3.215,0.057c-0.029,0.011-0.068,0.023-0.097,0.034v0.011
				c-0.049-0.011-0.087-0.034-0.135-0.045c-0.31-0.103-0.649-0.205-1.007-0.297c-1.24-0.308-1.346,0.297-1.346,0.297l0.049,0.045
				c0.116,0.114,0.407,0.41,0.639,0.73l0.048,0.057c0.184,0.274,0.32,0.547,0.252,0.718h-1.239c-1.017,0-1.85,0.73-1.85,1.619v2.577
				c0,0.433,0.194,0.844,0.542,1.152l2.353,2.064c0.213,0.194,0.474,0.319,0.765,0.399c0.959,1.813,3.041,3.078,5.471,3.078h0.881
				c3.332,0,6.043-2.383,6.043-5.301v-4.777c0-0.524,0.116-1.049,0.339-1.516l0.397-0.844
				C269.936,251.73,269.83,251.125,268.59,251.433z M254.403,258.479c-0.629-0.559-0.658-0.525-0.658-1.3v-2.349
				c0-0.559,0.523-1.026,1.162-1.026h0.514c0.455,0,0.813,0.319,0.823,0.707c0.009,1.607,0.048,5.381,0.058,5.438L254.403,258.479z"
				/>
			<path style="opacity:0.8;fill:#FFFFFF;enable-background:new    ;" d="M262.247,242.315c-0.657-1.446-1.327-2.934-1.491-4.563
				c-0.164-1.628,1.469-4.33,1.469-4.33c-1.375,1.046-2.344,2.802-2.599,4.706c-0.254,1.904,0.211,3.925,1.246,5.418
				c0.676,0.975,1.569,1.863,2.446,2.534C263.553,244.792,262.775,243.479,262.247,242.315z"/>
		</g>
		<g>
			<polygon style="fill:#407BFF;" points="242.212,253.67 248.41,264.937 245.706,264.937 239.157,258.154 			"/>
			<polygon style="fill:#407BFF;" points="243.146,264.937 217.564,264.937 222.114,246.628 247.695,246.628 			"/>
			<polygon style="opacity:0.2;enable-background:new    ;" points="243.146,264.937 217.564,264.937 222.114,246.628 
				247.695,246.628 			"/>
			<polygon style="fill:#407BFF;" points="242.146,264.937 216.564,264.937 221.114,246.628 246.695,246.628 			"/>
			<polygon style="opacity:0.6;fill:#FFFFFF;enable-background:new    ;" points="240.618,263.127 218.992,263.127 222.642,248.438 
				244.268,248.438 			"/>
			<g>
				<path style="fill:#263238;" d="M237.728,251.463c0,0-0.836-3.229-4.581-2.655c-3.745,0.574-5.757,3.778-5.403,5.669
					c0.354,1.891-1.365,3.935-3.005,4.276c-1.641,0.341-2.974,2.225-2.699,2.859s-0.895,1.516-0.895,1.516h13.685L237.728,251.463z"
					/>
				<path style="fill:#EBB376;" d="M235.684,259.327c-0.039,0.052-0.115,0.112-0.239,0.19c-0.538,0.336-0.914,0.827-1.173,1.344
					c-0.549,1.085-0.589,2.266-0.589,2.266h-4.283c0.381-0.198,0.671-0.448,0.881-0.732c0.951-1.189,0.663-2.877,0.663-2.877
					s2.496-0.405,3.885-0.439C235.464,259.051,235.868,259.112,235.684,259.327z"/>
				<path style="opacity:0.2;enable-background:new    ;" d="M235.684,259.327c-0.039,0.052-0.115,0.112-0.239,0.19
					c-0.538,0.336-0.914,0.827-1.173,1.344c-1.211,0.861-2.805,1.757-3.991,1.533c0.951-1.189,0.663-2.877,0.663-2.877
					s2.496-0.405,3.885-0.439L235.684,259.327z"/>
				<path style="fill:#EBB376;" d="M232.503,251.571c0,0-3.756,5.538-3.234,7.327c0.522,1.789,3.347,2.092,4.713,1.685
					c1.365-0.407,5.175-6.882,5.175-6.882S234.595,250.633,232.503,251.571z"/>
				<path style="fill:#263238;" d="M234.134,252.048c0,0-1.101,3.597,0.385,5.266c1.486,1.669-1.445,5.813-1.445,5.813h4.928
					c0,0,1.03-0.666,0.051-1.943c-0.979-1.277,0.531-3.18,1.263-4.389c0.733-1.209,1.647-4.127,0.768-5.319
					C239.206,250.283,234.501,250.017,234.134,252.048z"/>
				<path style="fill:#D58745;" d="M231.576,255.132l-1.898,1.193c0,0,0.301,0.475,1.026,0.514L231.576,255.132z"/>
			</g>
		</g>
	</g>
</g>
</svg>
